<svg width="184.844" height="45.117" viewBox="0 0 184.844 45.117" xmlns="http://www.w3.org/2000/svg"><g id="svgGroup" stroke-linecap="round" fill-rule="evenodd" font-size="9pt" stroke="#000" stroke-width="0.25mm" fill="#e7e8eb" style="stroke:#000;stroke-width:0.25mm;fill:#e7e8eb"><path d="M 49.609 21.445 L 49.805 24.844 A 10.08 10.08 0 0 1 49.734 26.093 Q 49.569 27.404 49.024 28.083 A 1.88 1.88 0 0 1 48.32 28.633 A 1.739 1.739 0 0 1 47.99 28.719 Q 47.8 28.75 47.578 28.75 A 2.357 2.357 0 0 1 47.211 28.719 Q 47.026 28.69 46.819 28.633 A 4.997 4.997 0 0 1 46.563 28.555 L 46.602 13.945 Q 46.602 10.781 46.23 7.598 Q 45.859 4.414 45.859 1.25 A 1.691 1.691 0 0 1 45.928 0.748 Q 46.099 0.196 46.704 0.051 A 2.086 2.086 0 0 1 47.187 0 L 47.5 0 A 2.995 2.995 0 0 1 47.61 0.002 Q 47.762 0.008 47.83 0.03 A 0.172 0.172 0 0 1 47.852 0.039 A 24.865 24.865 0 0 1 48.263 2.175 Q 48.422 3.226 48.526 4.418 A 48.04 48.04 0 0 1 48.633 5.899 A 456.813 456.813 0 0 0 48.817 8.992 Q 49.083 13.192 49.316 15.32 A 34.029 34.029 0 0 0 49.414 16.133 A 5.973 5.973 0 0 0 49.721 15.956 Q 50.448 15.512 52.093 14.346 A 151.048 151.048 0 0 0 52.383 14.141 Q 54.444 12.673 55.787 11.721 A 984.959 984.959 0 0 1 56.094 11.504 A 255.064 255.064 0 0 1 57.461 10.542 A 210.678 210.678 0 0 1 58.75 9.649 Q 61.628 7.768 62.395 7.735 A 0.622 0.622 0 0 1 62.422 7.735 Q 63.019 7.735 63.367 8.412 A 2.283 2.283 0 0 1 63.398 8.477 Q 61.445 10.938 57.109 13.945 Q 55.352 15.156 53.613 16.348 A 32.716 32.716 0 0 0 51.171 18.19 A 28.857 28.857 0 0 0 50.43 18.828 A 103.736 103.736 0 0 1 54.192 19.913 A 89.871 89.871 0 0 1 55.391 20.293 A 136.054 136.054 0 0 0 58.818 21.359 A 120.584 120.584 0 0 0 59.922 21.68 Q 64.961 23.164 68.594 23.36 A 8.95 8.95 0 0 1 68.584 23.785 Q 68.551 24.483 68.398 24.727 A 1.105 1.105 0 0 1 67.972 25.103 Q 67.588 25.306 66.953 25.352 L 66.641 25.352 Q 64.258 24.688 60.312 23.867 Q 53.402 22.444 50.319 21.637 A 43.104 43.104 0 0 1 49.609 21.445 Z M 116.641 14.024 L 117.617 16.445 A 154.623 154.623 0 0 0 119.248 20.371 A 121.294 121.294 0 0 0 120.859 23.945 A 12.656 12.656 0 0 0 121.493 22.839 Q 122.012 21.826 122.5 20.508 L 123.711 17.149 A 29.239 29.239 0 0 1 124.285 15.647 Q 125.508 12.72 126.523 12.656 A 0.313 0.313 0 0 1 126.696 12.609 Q 127.698 12.609 131.112 17.648 A 112.231 112.231 0 0 1 132.383 19.57 Q 134.32 22.567 134.889 23.307 A 4.395 4.395 0 0 0 134.961 23.399 Q 135.264 23.399 135.669 21.656 A 27.036 27.036 0 0 0 135.801 21.055 Q 136.136 19.443 136.417 18.174 A 143.405 143.405 0 0 1 136.66 17.09 A 22.631 22.631 0 0 1 137.284 14.871 A 19.583 19.583 0 0 1 137.578 14.063 A 12.254 12.254 0 0 1 138.118 12.865 Q 138.75 11.657 139.466 11.149 A 1.842 1.842 0 0 1 140.547 10.781 A 1.255 1.255 0 0 1 140.828 10.811 Q 141.012 10.853 141.141 10.956 A 0.691 0.691 0 0 1 141.309 11.152 A 2.494 2.494 0 0 1 141.412 11.349 Q 141.504 11.548 141.52 11.698 A 0.571 0.571 0 0 1 141.523 11.758 L 141.523 12.11 Q 141.055 13.438 140.547 15.137 Q 140.039 16.836 139.473 18.613 A 569.375 569.375 0 0 1 138.34 22.129 Q 137.773 23.867 137.227 25.274 Q 135.937 28.32 135.078 28.555 Q 134.414 28.867 132.93 27.031 A 21.969 21.969 0 0 1 132.29 26.157 Q 131.964 25.689 131.622 25.154 A 37.173 37.173 0 0 1 131.523 25 A 173.305 173.305 0 0 0 130.366 23.198 A 193.768 193.768 0 0 0 129.961 22.578 Q 128.436 20.186 127.391 18.64 A 71.234 71.234 0 0 0 126.797 17.774 A 99.751 99.751 0 0 0 126.011 20.518 A 76.151 76.151 0 0 0 125.371 23.047 Q 124.805 25.469 124.258 27.07 A 9.038 9.038 0 0 1 123.899 27.912 Q 123.176 29.375 122.305 29.375 A 1.536 1.536 0 0 1 121.823 29.292 Q 121.614 29.223 121.388 29.096 A 3.956 3.956 0 0 1 120.977 28.828 Q 119.313 27.057 116.379 21.303 A 133.049 133.049 0 0 1 115.898 20.352 Q 112.695 13.945 112.695 12.344 Q 112.695 11.641 113.125 11.465 Q 113.555 11.289 114.102 11.445 A 4.866 4.866 0 0 1 114.881 11.744 Q 115.289 11.945 115.585 12.209 A 2.332 2.332 0 0 1 115.977 12.656 A 2.903 2.903 0 0 1 116.13 12.905 Q 116.354 13.306 116.641 14.024 Z M 184.766 11.602 L 172.891 43.281 Q 172.257 44.699 171.437 45.022 A 1.352 1.352 0 0 1 170.938 45.117 A 0.955 0.955 0 0 1 170.582 45.054 Q 170.299 44.942 170.137 44.629 Q 169.883 44.141 170.117 43.477 A 66.963 66.963 0 0 1 171.015 40.104 Q 171.518 38.384 172.157 36.483 A 119.547 119.547 0 0 1 172.598 35.195 Q 174.219 30.547 174.766 28.945 A 15.165 15.165 0 0 1 174.012 28.123 Q 172.817 26.734 170.89 24.063 A 149.16 149.16 0 0 1 170.469 23.477 A 376.046 376.046 0 0 1 169.059 21.486 Q 164.551 15.076 164.455 14.252 A 0.288 0.288 0 0 1 164.453 14.219 Q 164.453 14.187 164.48 14.154 A 0.194 0.194 0 0 1 164.492 14.141 L 165.977 12.656 A 31.356 31.356 0 0 1 167.861 14.576 Q 170.458 17.431 174.023 22.344 A 88.723 88.723 0 0 1 174.617 23.169 Q 175.403 24.277 175.94 25.116 A 29.338 29.338 0 0 1 176.016 25.235 Q 176.836 23.594 177.305 22.402 A 350.47 350.47 0 0 1 177.528 21.836 Q 177.802 21.144 178.003 20.646 A 101.844 101.844 0 0 1 178.066 20.488 A 99.221 99.221 0 0 1 178.226 20.097 Q 178.405 19.661 178.641 19.096 A 320.084 320.084 0 0 1 178.867 18.555 A 110.409 110.409 0 0 1 179.595 16.824 Q 180.614 14.451 182.056 11.348 A 331.409 331.409 0 0 1 182.539 10.313 Q 182.891 10.156 183.281 10.156 A 2.965 2.965 0 0 1 183.787 10.197 Q 184.379 10.299 184.687 10.664 Q 184.844 10.86 184.844 11.113 Q 184.844 11.367 184.766 11.602 Z M 20.43 14.258 L 21.523 14.258 A 6.81 6.81 0 0 1 22.564 14.335 A 6.13 6.13 0 0 1 22.793 14.375 A 0.766 0.766 0 0 1 23.112 14.509 Q 23.382 14.712 23.398 15.177 A 1.731 1.731 0 0 1 23.398 15.235 A 2.153 2.153 0 0 1 23.424 15.43 Q 23.533 16.759 21.664 16.759 A 5.481 5.481 0 0 1 21.562 16.758 A 93.458 93.458 0 0 1 21.001 16.719 A 71.233 71.233 0 0 1 20.488 16.68 A 9.387 9.387 0 0 0 20.255 16.664 Q 19.996 16.65 19.797 16.655 A 3.229 3.229 0 0 0 19.687 16.66 A 0.75 0.75 0 0 0 19.593 16.672 Q 19.39 16.711 19.412 16.862 A 0.24 0.24 0 0 0 19.414 16.875 A 100.69 100.69 0 0 1 19.819 18.076 A 137.594 137.594 0 0 1 20.254 19.414 A 48.364 48.364 0 0 0 21.25 22.227 Q 22.656 25.703 23.906 27.227 Q 23.242 28.047 22.363 28.594 A 57.525 57.525 0 0 1 22.156 28.722 Q 21.508 29.122 21.432 29.14 A 0.027 0.027 0 0 1 21.426 29.141 A 0.144 0.144 0 0 1 21.374 29.132 A 0.13 0.13 0 0 1 21.328 29.102 L 15.82 17.5 L 5.156 20.117 L 4.766 21.758 A 37.007 37.007 0 0 1 4.182 23.833 Q 3.281 26.69 2.227 28.008 Q 1.992 28.399 1.25 28.086 A 9.399 9.399 0 0 1 0.841 27.923 Q 0.034 27.576 0.001 27.326 A 0.161 0.161 0 0 1 0 27.305 Q 0 27.227 0.82 25.039 A 4966.536 4966.536 0 0 0 2.48 20.606 A 6176.662 6176.662 0 0 0 3.784 17.116 A 7073.976 7073.976 0 0 0 4.238 15.899 Q 5.156 13.438 5.977 11.211 A 1116.588 1116.588 0 0 1 6.735 9.159 Q 7.095 8.188 7.418 7.322 A 681.31 681.31 0 0 1 7.461 7.207 Q 8.125 5.43 8.398 4.629 A 11.764 11.764 0 0 0 8.579 4.056 Q 8.708 3.601 8.77 3.223 A 5.105 5.105 0 0 1 8.873 2.731 Q 8.937 2.487 9.022 2.281 A 2.871 2.871 0 0 1 9.062 2.188 A 1.314 1.314 0 0 1 9.777 1.5 Q 10.033 1.388 10.367 1.336 A 4.192 4.192 0 0 1 11.016 1.289 A 7.351 7.351 0 0 1 12.742 2.602 A 6.509 6.509 0 0 1 13.613 3.731 Q 14.531 5.235 15.176 6.953 Q 15.82 8.672 16.445 10.43 A 12.507 12.507 0 0 0 18.125 13.633 A 1.225 1.225 0 0 0 18.989 14.198 A 1.716 1.716 0 0 0 19.18 14.219 A 28.095 28.095 0 0 0 19.765 14.246 Q 20.033 14.255 20.273 14.257 A 16.255 16.255 0 0 0 20.43 14.258 Z M 106.719 14.258 L 107.812 14.258 A 6.81 6.81 0 0 1 108.853 14.335 A 6.13 6.13 0 0 1 109.082 14.375 A 0.766 0.766 0 0 1 109.401 14.509 Q 109.671 14.712 109.687 15.177 A 1.731 1.731 0 0 1 109.688 15.235 A 2.153 2.153 0 0 1 109.713 15.43 Q 109.822 16.759 107.953 16.759 A 5.481 5.481 0 0 1 107.852 16.758 A 93.458 93.458 0 0 1 107.29 16.719 A 71.233 71.233 0 0 1 106.777 16.68 A 9.387 9.387 0 0 0 106.544 16.664 Q 106.285 16.65 106.086 16.655 A 3.229 3.229 0 0 0 105.977 16.66 A 0.75 0.75 0 0 0 105.882 16.672 Q 105.679 16.711 105.701 16.862 A 0.24 0.24 0 0 0 105.703 16.875 A 100.69 100.69 0 0 1 106.108 18.076 A 137.594 137.594 0 0 1 106.543 19.414 A 48.364 48.364 0 0 0 107.539 22.227 Q 108.945 25.703 110.195 27.227 Q 109.531 28.047 108.652 28.594 A 57.525 57.525 0 0 1 108.445 28.722 Q 107.797 29.122 107.721 29.14 A 0.027 0.027 0 0 1 107.715 29.141 A 0.144 0.144 0 0 1 107.663 29.132 A 0.13 0.13 0 0 1 107.617 29.102 L 102.109 17.5 L 91.445 20.117 L 91.055 21.758 A 37.007 37.007 0 0 1 90.471 23.833 Q 89.57 26.69 88.516 28.008 Q 88.281 28.399 87.539 28.086 A 9.399 9.399 0 0 1 87.13 27.923 Q 86.323 27.576 86.29 27.326 A 0.161 0.161 0 0 1 86.289 27.305 Q 86.289 27.227 87.109 25.039 A 4966.536 4966.536 0 0 0 88.77 20.606 A 6176.662 6176.662 0 0 0 90.073 17.116 A 7073.976 7073.976 0 0 0 90.527 15.899 Q 91.445 13.438 92.266 11.211 A 1116.588 1116.588 0 0 1 93.024 9.159 Q 93.384 8.188 93.707 7.322 A 681.31 681.31 0 0 1 93.75 7.207 Q 94.414 5.43 94.687 4.629 A 11.764 11.764 0 0 0 94.868 4.056 Q 94.998 3.601 95.059 3.223 A 5.105 5.105 0 0 1 95.162 2.731 Q 95.226 2.487 95.311 2.281 A 2.871 2.871 0 0 1 95.352 2.188 A 1.314 1.314 0 0 1 96.066 1.5 Q 96.322 1.388 96.656 1.336 A 4.192 4.192 0 0 1 97.305 1.289 A 7.351 7.351 0 0 1 99.031 2.602 A 6.509 6.509 0 0 1 99.902 3.731 Q 100.82 5.235 101.465 6.953 Q 102.109 8.672 102.734 10.43 A 12.507 12.507 0 0 0 104.414 13.633 A 1.225 1.225 0 0 0 105.278 14.198 A 1.716 1.716 0 0 0 105.469 14.219 A 28.095 28.095 0 0 0 106.054 14.246 Q 106.322 14.255 106.562 14.257 A 16.255 16.255 0 0 0 106.719 14.258 Z M 30.273 19.57 L 33.125 19.258 A 49.602 49.602 0 0 1 35.279 18.846 Q 37.259 18.516 38.693 18.481 A 13.61 13.61 0 0 1 39.023 18.477 A 12.675 12.675 0 0 1 40.456 18.55 Q 43.32 18.878 43.32 20.664 A 2.9 2.9 0 0 1 43.051 21.828 Q 42.52 23.04 40.937 24.492 A 20.811 20.811 0 0 1 37.064 27.249 Q 34.563 28.65 31.367 29.688 Q 31.098 29.688 30.771 29.156 A 3.47 3.47 0 0 1 30.762 29.141 A 382.069 382.069 0 0 1 30.605 28.883 Q 30.454 28.634 30.345 28.452 A 93.102 93.102 0 0 1 30.254 28.301 Q 30.078 28.008 30 27.93 A 34.391 34.391 0 0 0 33.386 26.621 Q 35.092 25.849 36.482 24.953 A 18.748 18.748 0 0 0 37.383 24.336 Q 39.16 23.056 39.32 22.197 A 0.905 0.905 0 0 0 39.336 22.031 Q 39.336 21.185 37.289 21.136 A 10.833 10.833 0 0 0 37.031 21.133 A 14.088 14.088 0 0 0 35.565 21.219 Q 34.127 21.371 32.165 21.791 A 64.013 64.013 0 0 0 30.273 22.227 A 5.335 5.335 0 0 1 26.758 20.781 A 5.53 5.53 0 0 1 26.106 20.061 Q 25.787 19.633 25.628 19.203 A 2.469 2.469 0 0 1 25.469 18.34 Q 25.469 17.11 26.172 16.074 A 7.632 7.632 0 0 1 27.172 14.893 A 9.86 9.86 0 0 1 28.047 14.141 A 13.797 13.797 0 0 1 29.576 13.129 A 17.536 17.536 0 0 1 30.781 12.5 A 18.133 18.133 0 0 1 38.711 10.664 Q 39.922 10.664 41.055 10.899 A 1.593 1.593 0 0 1 41.463 10.947 Q 41.939 11.073 42.099 11.532 A 1.318 1.318 0 0 1 42.148 11.719 A 6.052 6.052 0 0 1 42.217 12.195 Q 42.276 12.741 42.295 13.555 A 36.246 36.246 0 0 1 42.305 14.414 Q 40 13.36 37.109 13.36 A 14.753 14.753 0 0 0 34.59 13.563 Q 32.637 13.901 31.172 14.805 A 6.397 6.397 0 0 0 29.94 15.716 A 3.905 3.905 0 0 0 28.672 18.477 Q 28.672 19.385 29.776 19.539 A 3.614 3.614 0 0 0 30.273 19.57 Z M 162.812 28.32 L 160.508 28.32 Q 160.374 27.414 160.297 26.681 A 25.985 25.985 0 0 1 160.273 26.445 A 109.672 109.672 0 0 0 160.195 25.654 A 87.266 87.266 0 0 0 160.117 24.922 A 36.76 36.76 0 0 0 159.96 23.752 Q 159.863 23.116 159.752 22.56 A 19.807 19.807 0 0 0 159.648 22.07 A 13.829 13.829 0 0 1 156.711 25.431 A 11.674 11.674 0 0 1 151.836 27.774 A 12.276 12.276 0 0 1 150.821 27.942 Q 150.273 28.008 149.785 28.008 A 75.693 75.693 0 0 1 149.346 28.007 Q 148.758 28.003 148.323 27.99 A 25.78 25.78 0 0 1 148.262 27.988 Q 147.656 27.969 146.914 27.813 A 4.8 4.8 0 0 1 145.625 27.348 A 4.521 4.521 0 0 1 145.547 27.305 A 3.351 3.351 0 0 1 144.785 26.727 A 2.391 2.391 0 0 1 144.102 25 A 6.358 6.358 0 0 1 143.98 24.203 A 8.586 8.586 0 0 1 143.945 23.418 A 5.298 5.298 0 0 1 143.983 22.813 Q 144.056 22.19 144.264 21.368 A 18.346 18.346 0 0 1 144.336 21.094 A 9.604 9.604 0 0 1 144.822 19.736 Q 145.102 19.1 145.491 18.424 A 17.29 17.29 0 0 1 145.762 17.969 A 15.298 15.298 0 0 1 148.281 14.883 A 16.522 16.522 0 0 1 151.39 12.502 A 13.082 13.082 0 0 1 154.961 11.055 A 10.508 10.508 0 0 1 155.957 10.881 A 7.697 7.697 0 0 1 156.895 10.82 A 11.334 11.334 0 0 1 157.723 10.849 A 8.274 8.274 0 0 1 158.477 10.938 Q 160.484 10.938 161.326 13.361 A 8.007 8.007 0 0 1 161.523 14.024 A 14.133 14.133 0 0 1 161.801 15.395 Q 162.025 16.834 162.106 18.811 A 50.639 50.639 0 0 1 162.129 19.473 A 458.016 458.016 0 0 0 162.178 21.121 Q 162.251 23.443 162.324 24.863 Q 162.422 26.758 162.812 28.32 Z M 159.492 16.016 A 3.334 3.334 0 0 0 159.386 15.133 Q 159.108 14.123 158.105 13.851 A 3.208 3.208 0 0 0 157.266 13.75 A 3.862 3.862 0 0 0 156.719 13.711 A 6.898 6.898 0 0 0 154.07 14.272 Q 153.073 14.685 152.041 15.402 A 16.058 16.058 0 0 0 150.703 16.445 A 13.652 13.652 0 0 0 148.164 19.258 Q 147.159 20.691 146.8 21.929 A 4.721 4.721 0 0 0 146.602 23.242 A 2.921 2.921 0 0 0 146.823 24.418 Q 147.369 25.671 149.258 25.977 A 8.56 8.56 0 0 0 153.374 24.78 Q 154.535 24.114 155.657 23.077 A 16.174 16.174 0 0 0 155.977 22.774 Q 157.344 21.406 158.242 19.805 A 12.212 12.212 0 0 0 158.901 18.512 Q 159.197 17.828 159.344 17.204 A 5.16 5.16 0 0 0 159.492 16.016 Z M 9.891 9.075 A 16.943 16.943 0 0 0 10.664 5.82 Q 12.93 6.953 14.766 14.805 A 43.929 43.929 0 0 0 14.254 15.009 A 51.14 51.14 0 0 0 12.891 15.586 A 28.578 28.578 0 0 1 10.537 16.427 Q 9.423 16.767 8.433 16.947 A 11.604 11.604 0 0 1 6.367 17.149 A 36.722 36.722 0 0 1 6.885 15.923 A 49.353 49.353 0 0 1 7.5 14.59 Q 7.998 13.55 8.738 11.884 A 239.214 239.214 0 0 0 9.258 10.703 A 20.681 20.681 0 0 0 9.891 9.075 Z M 96.181 9.075 A 16.943 16.943 0 0 0 96.953 5.82 Q 99.219 6.953 101.055 14.805 A 43.929 43.929 0 0 0 100.543 15.009 A 51.14 51.14 0 0 0 99.18 15.586 A 28.578 28.578 0 0 1 96.827 16.427 Q 95.712 16.767 94.722 16.947 A 11.604 11.604 0 0 1 92.656 17.149 A 36.722 36.722 0 0 1 93.174 15.923 A 49.353 49.353 0 0 1 93.789 14.59 Q 94.287 13.55 95.027 11.884 A 239.214 239.214 0 0 0 95.547 10.703 A 20.681 20.681 0 0 0 96.181 9.075 Z" vector-effect="non-scaling-stroke"/></g></svg>