<!DOCTYPE svg PUBLIC "-//W3C//DTD SVG 20010904//EN" "http://www.w3.org/TR/2001/REC-SVG-20010904/DTD/svg10.dtd"[]><svg version="1.0" xmlns="http://www.w3.org/2000/svg" width="170" height="170" viewBox="0 0 700.000000 700.000000" preserveAspectRatio="xMidYMid meet"><g transform="translate(0.000000,700.000000) scale(0.100000,-0.100000)" fill="#bfb8b8" stroke="none"><path d="M2551 6984 c-1 -11 6 -29 15 -40 13 -16 15 -16 10 -1 -3 9 -1 17 4 17 6 0 10 7 10 16 0 10 -6 14 -14 11 -8 -3 -17 -1 -20 6 -2 7 -5 3 -5 -9z" /><path d="M3678 6946 c-29 -29 -62 -64 -73 -77 -12 -13 -43 -43 -69 -67 l-49 -42 13 -211 c7 -115 10 -212 7 -215 -3 -3 -51 32 -108 78 -99 80 -137 107 -324 236 -44 31 -105 76 -136 101 -31 25 -67 53 -79 61 -13 8 -39 30 -58 49 -18 19 -37 30 -40 25 -4 -5 -13 -9 -19 -10 -34 -3 -35 -4 -22 -21 8 -9 9 -14 2 -10 -6 4 -13 1 -16 -5 -2 -7 -8 -1 -12 15 -7 27 -25 38 -25 15 0 -10 -2 -10 -9 0 -6 10 -10 9 -14 -7 -3 -12 -1 -24 4 -27 5 -3 9 1 9 8 0 7 12 -6 26 -30 22 -37 24 -45 12 -59 -7 -9 -8 -14 -3 -11 6 4 22 -3 35 -14 l25 -20 -27 6 c-32 7 -39 -2 -43 -55 -1 -22 -5 -42 -8 -45 -8 -8 -18 46 -11 58 4 5 1 14 -7 19 -11 6 -10 11 4 27 21 23 22 58 3 78 -20 19 -26 18 -26 -6 0 -11 5 -19 12 -17 18 3 21 -30 4 -36 -11 -4 -13 -1 -9 10 4 11 3 14 -6 9 -7 -5 -9 -20 -5 -41 3 -19 1 -42 -6 -55 -10 -18 -9 -24 1 -31 8 -5 14 -25 14 -46 0 -33 5 -40 36 -58 20 -11 76 -47 125 -79 49 -33 141 -93 204 -135 63 -42 122 -82 130 -88 8 -7 24 -19 35 -27 11 -8 17 -17 14 -20 -6 -6 -74 5 -150 25 -20 5 -48 9 -63 9 -14 0 -34 4 -44 10 -9 5 -42 13 -72 19 -30 5 -88 17 -129 26 -73 16 -73 16 -97 -6 l-24 -22 -1 24 c-1 13 -1 27 0 32 0 4 -8 7 -18 7 -11 0 -26 3 -35 6 -12 4 -16 0 -16 -15 0 -12 -6 -21 -16 -21 -8 0 -13 -4 -10 -9 3 -5 -1 -11 -9 -15 -8 -3 -15 -1 -15 5 0 6 -4 8 -9 5 -5 -3 -25 -8 -45 -11 -27 -5 -36 -3 -36 8 0 10 9 13 30 11 20 -2 33 1 36 11 4 8 10 12 15 9 5 -3 9 0 9 5 0 6 7 11 15 11 20 0 19 16 -2 24 -9 4 -20 1 -24 -6 -6 -10 -13 -7 -29 10 -11 12 -32 22 -46 22 -20 0 -25 4 -20 16 4 12 1 14 -14 9 -11 -4 -20 -2 -20 4 0 6 -9 15 -20 21 -20 10 -20 10 -8 -11 7 -12 21 -31 31 -41 23 -24 22 -38 -5 -35 -19 2 -22 -4 -25 -45 -2 -28 1 -48 7 -48 5 0 10 7 10 15 0 8 8 15 17 15 15 0 15 1 -2 13 -13 11 -15 16 -6 22 18 11 29 -4 37 -52 6 -41 -5 -59 -21 -33 -8 12 -45 13 -45 1 0 -5 8 -12 17 -15 15 -6 14 -9 -6 -29 -21 -21 -23 -21 -35 -4 -13 17 -14 16 -19 -3 -3 -11 -13 -23 -24 -27 -10 -3 -22 -11 -26 -17 -6 -8 -10 -7 -14 2 -7 18 -34 15 -27 -3 4 -8 1 -15 -4 -15 -6 0 -25 -13 -43 -30 -34 -30 -49 -31 -49 -2 0 15 2 15 11 2 9 -13 10 -13 7 0 -3 8 -13 19 -24 24 -10 5 -26 22 -34 39 -17 34 -40 47 -40 23 0 -9 5 -16 10 -16 6 0 10 -7 10 -15 0 -18 56 -113 81 -138 10 -9 31 -16 46 -15 78 5 162 -2 157 -14 -2 -7 -66 -55 -142 -106 -306 -206 -500 -419 -766 -842 -16 -25 -47 -60 -70 -79 -56 -45 -156 -132 -181 -156 -12 -11 -55 -45 -96 -75 -41 -30 -87 -68 -104 -83 -40 -38 -282 -211 -395 -283 -50 -31 -89 -59 -86 -61 10 -11 191 34 384 95 78 25 145 42 148 39 16 -16 -13 -60 -99 -148 -79 -80 -108 -102 -178 -136 -115 -56 -258 -102 -354 -115 -108 -14 -118 -19 -65 -33 25 -6 52 -14 60 -18 8 -3 59 -13 113 -20 54 -8 100 -17 103 -20 3 -3 -18 -36 -47 -74 -58 -76 -113 -184 -134 -264 -8 -29 -13 -54 -12 -56 2 -1 25 27 53 64 27 36 111 125 187 199 119 115 146 136 190 149 263 78 297 85 297 63 0 -48 -97 -393 -147 -524 -34 -90 -36 -92 -141 -187 -105 -95 -272 -224 -322 -249 -14 -7 -32 -17 -40 -24 -8 -6 -46 -28 -85 -49 -38 -21 -90 -49 -115 -63 -25 -14 -97 -50 -160 -79 -102 -47 -111 -53 -78 -53 112 0 371 71 557 154 57 25 106 44 109 41 11 -11 -227 -277 -397 -444 -75 -74 -122 -125 -106 -114 120 81 764 417 777 405 7 -7 -46 -247 -97 -437 -15 -55 -35 -134 -46 -175 -11 -41 -34 -122 -50 -179 -17 -57 -28 -105 -25 -108 2 -3 17 15 31 39 15 23 35 55 46 70 10 15 19 29 19 32 0 3 29 52 65 108 35 57 95 152 132 212 37 60 83 125 102 145 l33 35 -15 46 c-34 101 -49 161 -44 175 3 7 1 15 -5 17 -8 3 -47 149 -48 182 0 10 76 0 152 -21 82 -22 230 -135 240 -183 5 -19 12 -53 17 -75 5 -22 34 -132 65 -244 31 -112 55 -205 53 -207 -1 -2 -29 10 -62 26 -67 33 -85 36 -85 16 0 -7 38 -31 85 -52 97 -45 89 -32 140 -219 63 -231 161 -497 284 -774 50 -113 131 -264 138 -257 2 1 -3 35 -12 75 -30 144 -21 118 121 -327 15 -45 28 -81 31 -79 5 6 -25 387 -46 587 -6 52 -24 163 -40 245 -17 83 -33 174 -37 203 l-7 52 86 -87 85 -88 27 -124 c80 -382 217 -730 398 -1013 93 -145 148 -218 250 -330 l80 -88 594 0 595 0 76 70 c80 73 90 78 110 58 13 -13 52 -22 52 -12 0 4 -7 12 -17 19 -9 7 -13 17 -9 23 10 16 34 4 32 -16 -1 -16 4 -18 61 -21 12 -1 29 -8 37 -17 9 -8 16 -12 16 -7 0 4 5 1 10 -9 12 -19 3 -48 -14 -48 -6 0 -12 -8 -12 -19 0 -12 7 -17 21 -16 30 4 31 5 15 15 -12 7 -12 12 -2 22 6 6 12 23 13 37 l0 26 10 -25 c8 -19 12 -22 19 -10 5 8 6 19 2 25 -3 5 2 4 11 -4 9 -7 14 -18 10 -25 -8 -12 -10 -18 -12 -41 -1 -9 -7 -12 -18 -8 -11 4 -14 3 -9 -5 4 -7 28 -12 54 -12 47 0 48 1 64 43 9 23 51 132 93 242 173 448 316 851 394 1110 12 39 42 156 67 260 60 253 52 236 115 229 29 -3 63 -10 76 -15 14 -5 28 -7 33 -4 5 3 11 1 15 -5 4 -6 10 -8 14 -5 9 5 39 -37 81 -110 45 -79 91 -145 101 -145 10 0 3 65 -13 118 -5 18 -7 36 -3 40 10 10 44 -40 37 -57 -4 -10 -1 -12 7 -6 10 5 11 2 7 -13 -4 -11 -2 -23 4 -27 5 -3 8 -22 6 -40 -3 -19 -1 -37 4 -40 5 -3 0 -21 -12 -40 -11 -20 -18 -44 -15 -55 3 -11 2 -20 -2 -20 -11 0 -32 -66 -26 -83 4 -10 -3 -18 -22 -25 -17 -6 -21 -11 -10 -11 18 -1 23 -26 7 -36 -5 -3 -10 -13 -10 -21 0 -18 -36 -54 -46 -46 -5 4 -3 0 3 -8 12 -16 7 -67 -8 -76 -5 -3 -9 -16 -9 -29 0 -13 -5 -25 -12 -27 -11 -4 -15 -20 -21 -85 -2 -18 -14 -44 -27 -58 -20 -21 -21 -25 -6 -25 18 0 16 -4 -26 -51 -22 -23 -23 -30 -3 -23 21 9 19 -10 -5 -31 -11 -10 -17 -22 -14 -27 3 -5 0 -16 -7 -24 -6 -8 -12 -37 -13 -64 -1 -41 -4 -50 -19 -50 -10 0 -15 -4 -12 -10 3 -5 1 -10 -6 -10 -6 0 -9 -8 -6 -19 3 -14 1 -18 -9 -14 -8 3 -14 1 -14 -5 0 -5 7 -12 15 -16 8 -3 15 -10 15 -16 0 -6 -4 -8 -10 -5 -5 3 -11 -2 -12 -12 -3 -42 -19 -83 -31 -83 -6 0 -7 -3 -4 -7 4 -3 -1 -12 -11 -20 -16 -12 -16 -13 1 -7 9 3 17 1 17 -5 0 -6 -4 -11 -10 -11 -5 0 -10 -6 -10 -14 0 -8 -6 -17 -12 -20 -10 -5 -10 -7 0 -12 18 -8 15 -44 -4 -44 -10 0 -14 -6 -11 -15 4 -8 2 -17 -4 -21 -5 -3 -7 -14 -4 -25 5 -14 0 -22 -17 -28 -13 -6 -17 -10 -10 -10 15 -1 6 -44 -15 -78 -10 -16 -11 -23 -2 -28 8 -6 8 -9 -1 -15 -7 -4 -14 -31 -17 -59 l-4 -51 751 2 751 3 58 135 c32 74 75 187 96 250 21 63 42 120 47 126 14 18 10 606 -5 597 -20 -12 -44 -10 -44 4 0 8 7 11 14 8 24 -9 43 21 43 68 0 40 -2 45 -20 40 -22 -6 -26 7 -8 25 9 9 9 12 0 12 -7 0 -12 5 -12 12 0 6 3 8 7 5 7 -8 33 11 33 24 0 4 -20 8 -45 7 -49 -1 -57 -11 -24 -29 18 -9 19 -13 8 -21 -11 -7 -11 -11 -1 -15 16 -6 16 -26 0 -21 -16 6 -38 -16 -38 -36 0 -9 -6 -16 -14 -16 -8 0 -16 -3 -19 -7 -2 -5 -2 -3 -1 4 2 7 -3 25 -11 40 -8 15 -15 23 -15 17 0 -7 -7 -15 -16 -18 -12 -5 -14 -1 -9 17 4 14 3 18 -3 9 -7 -10 -11 -10 -22 3 -7 9 -19 14 -27 11 -7 -3 -13 1 -13 10 0 9 9 18 20 21 11 3 20 9 20 13 0 9 60 19 76 13 7 -2 9 -14 7 -26 -5 -18 -3 -20 8 -9 8 7 14 20 14 29 0 9 9 21 20 27 23 13 36 28 29 35 -3 3 -9 -1 -13 -8 -6 -8 -11 -9 -15 -3 -3 6 3 13 14 17 11 3 20 13 20 22 0 8 6 13 13 10 6 -2 18 2 26 10 12 13 11 14 -9 8 -15 -5 -20 -4 -16 4 4 6 1 11 -6 12 -7 0 1 7 17 14 17 8 24 14 16 15 -8 0 -11 7 -8 20 3 11 0 20 -6 20 -7 0 -4 7 6 14 21 16 22 52 2 60 -8 3 -15 12 -15 21 0 11 -12 15 -50 15 -27 0 -50 -4 -50 -9 0 -4 15 -7 33 -5 17 2 39 2 47 -1 13 -5 13 -7 0 -16 -13 -8 -13 -11 3 -23 16 -12 16 -14 1 -20 -11 -4 -13 -10 -7 -19 5 -6 9 -21 9 -32 -1 -11 4 -23 9 -27 6 -4 2 -8 -9 -8 -13 0 -17 5 -13 20 3 10 -1 25 -9 31 -19 16 -30 3 -14 -16 19 -23 -4 -18 -25 5 -10 11 -13 20 -7 20 23 0 12 18 -17 28 -24 8 -31 7 -35 -4 -3 -9 -10 -12 -16 -9 -6 3 -10 -4 -9 -17 0 -13 3 -17 6 -10 7 18 22 15 19 -6 -2 -9 -10 -18 -19 -20 -13 -3 -17 4 -18 25 0 24 -1 25 -9 8 -4 -11 -6 -30 -3 -42 4 -16 -1 -22 -19 -26 -23 -4 -23 -4 0 -6 30 -2 28 -21 -3 -21 -16 0 -25 6 -25 15 0 8 -9 15 -19 15 -11 0 -23 4 -26 10 -9 14 -56 6 -94 -18 -18 -11 -40 -18 -47 -15 -9 3 -12 0 -9 -8 7 -19 -34 -44 -48 -30 -6 6 -15 11 -21 11 -5 0 -2 -6 8 -13 16 -11 14 -15 -20 -42 -21 -17 -43 -36 -50 -43 -17 -17 -27 -15 -20 4 3 9 2 12 -4 9 -6 -4 -9 -12 -8 -18 3 -11 -182 -189 -220 -212 -9 -6 -51 -46 -92 -90 -41 -44 -77 -82 -80 -85 -3 -3 -30 -34 -60 -70 -30 -35 -61 -71 -68 -78 -7 -8 -24 -29 -39 -48 -14 -19 -28 -32 -30 -30 -7 7 30 66 40 66 5 0 7 7 3 15 -3 8 3 30 14 48 11 17 22 39 26 47 15 41 50 100 58 100 5 0 6 3 3 7 -4 3 4 21 18 39 14 18 25 37 25 42 0 4 11 18 25 30 14 12 25 28 25 36 0 8 19 42 42 75 30 44 44 57 51 49 6 -9 7 -7 3 5 -3 11 2 29 11 42 10 12 25 33 33 45 8 12 20 28 26 34 7 7 21 31 33 54 13 25 29 42 39 42 13 0 14 2 3 9 -9 6 -10 11 -2 15 6 4 18 22 27 41 9 19 20 35 25 35 5 0 9 7 9 15 0 9 7 18 15 21 8 4 13 10 10 15 -3 4 11 41 32 81 31 61 59 157 62 216 2 33 -23 1 -35 -43 -7 -28 -22 -72 -33 -99 -18 -41 -24 -47 -44 -43 -21 6 -21 6 -3 -8 11 -8 14 -15 8 -15 -7 0 -11 -3 -11 -7 3 -18 -1 -36 -7 -30 -7 7 -54 -46 -54 -60 0 -14 -41 -58 -51 -56 -4 2 -6 -4 -3 -12 3 -8 -8 -36 -25 -62 -17 -25 -31 -52 -31 -58 0 -10 -29 -53 -69 -101 -4 -5 -14 -21 -21 -35 -7 -13 -16 -26 -19 -29 -3 -3 -11 -14 -18 -25 -50 -86 -166 -265 -170 -262 -7 8 59 267 68 267 5 0 6 7 3 15 -6 14 24 132 54 215 9 25 17 50 17 55 0 18 39 125 45 125 3 0 6 19 8 42 1 23 7 47 11 52 5 6 13 31 19 56 11 48 26 94 48 148 8 18 12 37 9 42 -3 4 2 13 10 20 8 7 15 23 15 36 0 13 4 24 9 24 4 0 6 11 3 25 -3 18 2 31 19 45 17 14 18 18 7 14 -20 -7 -26 20 -7 32 8 5 8 9 -1 14 -8 5 -14 51 -17 131 -3 68 -9 125 -13 127 -36 14 -38 25 -54 312 -9 157 -19 312 -21 345 -9 114 -24 629 -18 638 8 13 158 -138 313 -313 70 -80 156 -172 190 -204 l63 -59 -83 162 c-46 89 -134 237 -196 329 -62 91 -111 169 -108 173 7 12 56 -6 180 -69 66 -32 153 -71 194 -86 41 -15 115 -43 163 -62 49 -20 91 -34 93 -31 3 2 -42 31 -98 65 -163 95 -339 226 -502 373 -239 215 -289 271 -339 380 -25 52 -48 105 -52 118 l-7 24 103 -6 c290 -18 563 -113 824 -287 39 -26 81 -53 95 -60 67 -35 -136 157 -290 275 -152 117 -228 165 -384 244 -135 69 -161 91 -106 91 50 0 196 39 308 82 106 41 221 112 301 185 l46 42 -140 -45 c-77 -25 -230 -63 -340 -85 -171 -34 -225 -41 -377 -46 -136 -5 -181 -3 -193 7 -23 19 -41 96 -69 292 -13 92 -17 101 -72 185 -91 137 -213 390 -199 412 2 5 39 6 81 3 73 -5 77 -4 69 14 -5 10 -11 44 -13 74 l-4 55 -51 0 c-29 0 -77 3 -107 7 -30 4 -81 10 -112 14 -32 4 -58 11 -58 16 0 12 107 0 135 -15 17 -9 18 -8 9 4 -6 8 -24 46 -39 84 -37 95 -101 221 -137 272 -17 22 -49 55 -72 71 -37 27 -43 37 -54 91 -10 49 -16 61 -32 61 -24 0 -45 -40 -65 -122 -20 -84 -18 -155 4 -258 31 -138 32 -140 90 -140 60 0 81 -7 81 -28 0 -19 22 -85 31 -92 4 -3 9 -14 11 -25 1 -11 6 -22 9 -25 11 -9 79 -151 79 -165 0 -7 -16 -19 -36 -25 -49 -16 -36 -24 16 -10 25 7 46 8 52 2 4 -4 10 -43 13 -85 3 -67 1 -78 -15 -87 -30 -16 -142 -12 -168 6 -13 9 -26 14 -29 11 -2 -3 8 -14 23 -24 23 -14 46 -18 114 -16 l85 2 37 -76 37 -77 -20 -38 c-11 -21 -15 -38 -9 -38 5 0 10 4 10 8 0 5 6 17 14 27 13 18 15 16 40 -32 14 -29 30 -54 36 -58 20 -13 9 -44 -23 -64 -20 -12 -40 -37 -51 -63 -36 -86 -50 -108 -71 -108 -11 0 -62 10 -113 22 l-93 22 2 66 c2 61 -1 70 -50 160 -189 347 -220 440 -237 729 -6 95 -9 111 -23 109 -13 -3 -15 -16 -12 -83 1 -44 8 -86 13 -92 7 -9 5 -15 -8 -20 -32 -13 -245 -7 -347 11 -86 14 -131 27 -278 82 -52 19 -211 94 -226 106 -10 8 16 68 113 257 122 241 204 414 204 433 0 5 -29 -28 -65 -74 -36 -45 -78 -99 -93 -118 -50 -62 -221 -288 -262 -346 -45 -64 -42 -66 -66 61 -30 161 -7 349 71 580 15 44 31 88 36 98 9 15 3 17 -65 17 l-74 0 -54 -54z m-925 -135 c-4 -3 -10 -10 -14 -14 -3 -4 -11 -2 -18 6 -9 12 -7 15 14 15 14 0 22 -3 18 -7z m27 -31 c0 -5 -5 -10 -12 -10 -6 0 -9 -2 -6 -5 8 -9 38 6 32 16 -3 5 0 9 5 9 13 0 14 -10 2 -29 -6 -9 -4 -23 7 -39 15 -23 25 -52 17 -52 -10 0 -84 104 -79 111 7 12 34 11 34 -1z m116 -46 c-4 -9 -9 -14 -13 -11 -3 4 -12 -1 -19 -11 -12 -15 -13 -15 -14 10 0 21 4 25 20 21 12 -3 20 0 20 8 0 7 3 10 6 6 4 -3 4 -14 0 -23z m-168 -51 c-13 -16 -15 -16 -21 1 -4 10 0 14 13 13 14 -1 16 -4 8 -14z m69 -49 c-3 -3 -12 -4 -19 -1 -8 3 -5 6 6 6 11 1 17 -2 13 -5z m3 -67 c0 -6 -9 -2 -20 8 -11 10 -20 23 -20 28 0 6 9 2 20 -8 11 -10 20 -23 20 -28z m-30 -17 c0 -5 -5 -10 -11 -10 -5 0 -7 5 -4 10 3 6 8 10 11 10 2 0 4 -4 4 -10z m91 -47 c13 -16 12 -17 -3 -4 -10 7 -18 15 -18 17 0 8 8 3 21 -13z m2143 -123 c14 -99 30 -270 27 -287 0 -5 -9 -8 -18 -8 -24 0 -61 153 -62 252 -1 76 18 168 31 155 4 -4 14 -55 22 -112z m-2581 -60 c-3 -11 -9 -20 -14 -20 -10 0 -12 24 -2 33 13 13 21 7 16 -13z m262 -60 c3 -5 2 -10 -4 -10 -5 0 -13 5 -16 10 -3 6 -2 10 4 10 5 0 13 -4 16 -10z m-255 -44 c0 -3 -4 -8 -10 -11 -5 -3 -10 -1 -10 4 0 6 5 11 10 11 6 0 10 -2 10 -4z m-160 -131 c-14 -16 -40 -20 -40 -6 0 10 17 19 39 20 11 1 11 -2 1 -14z m-90 -55 c0 -5 -6 -10 -14 -10 -8 0 -18 5 -21 10 -3 6 3 10 14 10 12 0 21 -4 21 -10z m30 -30 c0 -5 -4 -10 -10 -10 -5 0 -10 5 -10 10 0 6 5 10 10 10 6 0 10 -4 10 -10z m1680 -622 c29 -46 68 -106 86 -133 19 -28 34 -55 34 -61 0 -13 -131 2 -177 21 l-32 14 14 47 c8 26 14 50 13 53 -2 21 3 141 6 141 2 0 28 -37 56 -82z m-290 -179 c69 -6 148 -12 175 -14 28 -2 88 -11 135 -20 47 -9 134 -20 195 -23 l109 -7 8 -38 c13 -64 67 -157 90 -157 5 0 -3 15 -17 34 -24 31 -65 123 -65 145 0 16 50 18 72 2 39 -27 56 -54 79 -126 12 -38 26 -74 32 -80 7 -7 7 -3 2 10 -4 11 -11 34 -15 50 -5 17 -12 41 -16 55 -7 23 -6 24 12 10 10 -8 24 -19 30 -25 184 -164 279 -231 364 -259 104 -34 178 -54 225 -61 33 -6 56 -23 135 -100 140 -136 253 -223 350 -267 238 -110 217 -96 225 -142 3 -22 8 -129 11 -236 4 -178 3 -193 -11 -175 -9 11 -34 39 -55 63 -27 28 -42 55 -46 82 -7 43 -33 56 -35 18 -1 -21 -2 -21 -6 -3 -3 11 -15 29 -28 41 -12 11 -34 41 -49 67 -16 26 -40 55 -54 65 -25 17 -174 45 -229 43 -13 0 -23 3 -23 8 0 5 -16 19 -35 31 -29 18 -38 20 -50 10 -12 -10 -15 -9 -15 4 0 10 5 14 10 11 6 -3 10 1 10 10 0 14 -2 14 -21 2 -23 -17 -59 -11 -59 8 0 7 3 15 8 18 4 2 2 2 -5 1 -7 -2 -22 5 -34 15 l-23 18 22 14 c12 8 22 17 22 22 0 4 -4 5 -10 2 -6 -4 -10 5 -10 19 0 17 -6 26 -16 26 -8 0 -13 -4 -9 -9 3 -5 1 -13 -5 -16 -6 -4 -10 -3 -9 2 4 21 -2 56 -8 49 -11 -11 -12 -66 0 -66 6 0 8 -3 4 -6 -12 -12 -65 48 -60 67 3 11 10 19 15 19 5 0 6 -5 2 -11 -4 -7 -1 -10 6 -7 23 7 23 28 1 28 -14 0 -19 5 -15 15 6 15 -7 21 -19 8 -12 -11 -87 -11 -87 1 0 6 -5 3 -10 -6 -6 -10 -22 -16 -40 -16 -32 1 -37 7 -19 25 8 8 4 11 -14 10 -17 -2 -23 -6 -19 -17 5 -13 2 -13 -14 1 -13 11 -27 14 -44 8 -14 -4 -20 -7 -13 -8 7 -1 10 -8 7 -16 -5 -11 -11 -12 -25 -4 -17 9 -18 12 -4 25 26 26 17 39 -10 14 -14 -13 -25 -19 -25 -13 0 5 -12 15 -26 22 -21 9 -25 17 -21 36 3 17 0 25 -10 25 -8 0 -11 -4 -8 -10 9 -15 -7 -12 -32 5 -16 11 -20 22 -17 45 3 17 1 30 -5 30 -6 0 -11 -8 -11 -17 -1 -16 -2 -15 -12 2 -14 24 -29 35 -40 29 -4 -3 -8 4 -8 16 0 12 -4 18 -10 15 -5 -3 -10 0 -10 9 0 8 6 16 13 19 6 2 9 7 6 11 -4 4 -14 0 -23 -9 -15 -15 -16 -15 -16 3 0 27 -56 71 -82 64 -15 -4 -19 -2 -13 7 6 10 3 11 -13 2 -25 -13 -45 -14 -38 -2 3 5 -1 14 -9 21 -13 11 -14 10 -9 -4 10 -26 -25 -20 -48 9 -11 14 -24 22 -30 19 -6 -4 -5 -10 3 -15 8 -5 9 -9 4 -9 -6 0 -16 5 -23 12 -18 18 -14 -3 5 -24 13 -15 14 -18 2 -18 -8 0 -19 4 -25 10 -15 15 -84 21 -84 7 0 -7 -7 -4 -15 7 -9 12 -22 17 -35 13 -11 -3 -22 -1 -25 3 -3 5 -30 9 -59 9 -64 0 -128 20 -215 67 -71 39 -93 58 -83 69 4 5 1 5 -6 1 -33 -19 -136 134 -149 221 l-6 38 29 -42 c40 -57 98 -101 158 -118 56 -16 206 -36 217 -29 8 5 -5 60 -19 77 -5 7 -12 23 -15 37 -4 15 -14 26 -24 27 -10 0 -71 8 -136 17 -65 9 -131 16 -147 16 -19 0 -33 7 -40 19 -15 30 -13 32 23 26 17 -3 88 -10 157 -16z m-2171 -339 c-6 -16 -15 -30 -20 -30 -13 0 -11 13 7 38 21 30 25 28 13 -8z m52 -33 c-8 -8 -11 -7 -11 4 0 20 13 34 18 19 3 -7 -1 -17 -7 -23z m1110 -24 c-21 -54 -186 -544 -224 -668 -30 -96 -102 -364 -112 -418 -11 -58 -23 -64 -107 -59 -40 2 -77 8 -82 12 -11 11 73 303 127 440 68 172 179 378 320 597 24 38 54 85 66 106 30 50 35 47 12 -10z m-1186 -21 c-4 -14 -11 -19 -22 -15 -14 5 -14 8 -1 17 8 6 13 18 10 26 -3 11 -2 12 8 4 7 -7 9 -21 5 -32z m2189 0 c-4 -9 -7 -29 -6 -44 1 -17 -5 -28 -16 -31 -16 -4 -16 -5 0 -6 9 0 24 6 32 15 18 17 22 39 6 29 -5 -3 -10 2 -10 11 0 10 3 14 7 11 3 -4 15 1 26 10 19 17 20 17 8 -4 -17 -33 -13 -37 12 -10 l22 24 70 -22 c105 -34 244 -56 397 -62 l137 -6 53 -61 c63 -72 166 -171 216 -206 l35 -25 -32 -3 c-27 -3 -52 10 -150 81 -191 138 -189 137 -241 137 -27 0 -122 -14 -212 -31 -89 -17 -210 -39 -268 -50 -58 -11 -172 -21 -255 -24 -125 -4 -152 -8 -162 -22 -20 -26 -16 -58 16 -128 53 -117 171 -218 309 -265 39 -13 72 -28 72 -32 0 -5 -9 -17 -21 -29 -12 -12 -18 -27 -15 -36 5 -13 4 -14 -9 -3 -20 17 -31 -10 -15 -42 10 -21 10 -22 -4 -4 -24 30 -50 13 -43 -29 6 -37 79 -189 105 -217 20 -24 35 -23 28 2 -17 59 -17 66 -1 37 17 -29 26 -28 60 8 6 5 35 30 65 55 30 25 87 75 125 111 165 156 217 199 234 189 9 -5 38 -30 65 -55 27 -25 59 -48 70 -51 12 -2 72 -6 135 -7 97 -2 116 -5 125 -20 8 -13 8 -20 -4 -27 -20 -12 -33 -2 -26 23 4 18 2 18 -19 -6 -31 -33 -31 -33 1 -33 17 1 32 -7 42 -22 8 -13 11 -22 6 -20 -5 2 -10 0 -11 -4 -7 -20 -1 -28 17 -28 25 0 27 -20 3 -21 -17 -1 -17 -2 0 -6 20 -5 21 -12 3 -35 -7 -10 -16 -14 -20 -10 -4 4 -7 2 -6 -3 8 -38 -15 -48 -30 -12 -8 20 -9 20 -10 2 0 -17 -2 -18 -10 -5 -9 13 -12 13 -21 -3 -6 -9 -14 -15 -19 -12 -5 3 -13 -12 -16 -35 -5 -33 -9 -38 -20 -29 -11 9 -14 9 -14 0 0 -6 7 -14 15 -17 24 -10 17 -26 -7 -19 l-23 7 23 -17 c12 -9 20 -21 16 -26 -3 -6 -3 -18 1 -27 6 -15 8 -15 15 3 8 20 9 19 9 -1 1 -19 -5 -22 -50 -23 -157 -3 -310 -88 -431 -239 -10 -12 -18 -25 -18 -29 0 -3 -11 -35 -26 -70 -14 -35 -22 -72 -19 -83 8 -24 -14 -110 -29 -110 -8 0 -8 -2 0 -8 6 -4 14 -45 17 -92 3 -47 8 -93 12 -103 10 -25 41 -17 38 10 -3 27 50 41 205 54 137 11 218 30 295 71 121 65 207 169 247 301 20 64 25 74 35 60 8 -10 17 -13 26 -8 8 5 11 5 7 1 -6 -7 74 -76 88 -76 2 0 16 -10 29 -22 12 -13 35 -32 49 -43 14 -11 25 -25 26 -32 0 -6 5 -13 11 -15 31 -10 -95 -609 -139 -660 -8 -10 -11 -18 -7 -18 5 0 4 -5 -3 -12 -7 -7 -12 -20 -12 -29 0 -10 -4 -19 -9 -21 -6 -1 -12 -15 -15 -30 -2 -14 -9 -36 -16 -47 -6 -12 -8 -25 -6 -30 3 -5 0 -11 -8 -14 -8 -3 -17 -21 -21 -39 -4 -18 -14 -37 -21 -43 -8 -5 -15 -22 -16 -37 -1 -15 -6 -24 -10 -22 -4 3 -8 -2 -8 -11 0 -9 -4 -14 -9 -11 -5 3 -11 -12 -15 -33 -3 -22 -13 -41 -22 -45 -8 -3 -12 -11 -9 -16 4 -6 1 -17 -5 -25 -7 -8 -9 -15 -5 -15 4 0 2 -7 -5 -15 -7 -8 -9 -15 -5 -15 4 0 2 -7 -5 -15 -7 -8 -9 -15 -4 -15 5 0 1 -5 -8 -11 -10 -5 -18 -16 -18 -23 0 -42 -103 -68 -364 -91 -600 -53 -650 -66 -1051 -266 -279 -138 -262 -149 29 -18 200 90 335 137 412 143 23 2 46 6 50 9 5 3 10 -6 11 -20 1 -18 -2 -22 -7 -12 -5 7 -12 10 -16 6 -4 -4 0 -15 10 -26 16 -17 16 -19 0 -25 -16 -6 -16 -8 1 -20 13 -9 15 -15 6 -20 -9 -6 -9 -11 0 -22 6 -8 8 -14 4 -14 -4 0 -2 -6 4 -14 17 -20 17 -76 1 -86 -11 -7 -11 -12 -2 -22 19 -23 -4 -128 -27 -128 -6 0 -8 -7 -5 -15 5 -11 -1 -15 -19 -15 -22 0 -27 -6 -33 -35 -3 -19 -4 -44 -1 -55 4 -16 0 -20 -19 -20 -13 0 -28 -9 -34 -20 -6 -11 -17 -20 -25 -20 -7 0 -16 -6 -18 -12 -4 -9 -6 -7 -6 3 -1 18 -31 22 -31 3 0 -6 -7 -14 -14 -17 -11 -4 -13 -1 -9 10 5 12 1 14 -18 8 -13 -4 -26 -8 -29 -9 -3 0 -6 4 -8 9 -6 19 -32 26 -52 15 -13 -7 -20 -7 -20 0 0 5 -4 10 -10 10 -5 0 -7 -7 -4 -15 4 -8 1 -15 -5 -15 -7 0 -14 7 -17 15 -9 22 -24 18 -24 -5 0 -11 -5 -20 -11 -20 -6 0 -8 9 -4 20 4 11 2 20 -4 20 -6 0 -11 -4 -11 -10 0 -5 -5 -10 -11 -10 -7 0 -10 14 -7 35 2 19 3 35 2 35 -14 0 -34 -15 -34 -26 0 -8 -9 -13 -22 -11 -17 1 -23 -3 -21 -16 0 -10 -2 -15 -5 -12 -4 4 -7 19 -7 33 0 20 -6 28 -21 30 -17 2 -23 -4 -28 -29 -3 -17 -3 -35 0 -40 3 -5 -2 -6 -10 -3 -12 5 -13 11 -6 24 15 27 12 64 -6 86 -8 10 -13 14 -9 7 3 -7 -5 -19 -19 -28 -17 -11 -23 -23 -21 -38 4 -20 3 -21 -9 -4 -7 9 -22 18 -32 18 -17 1 -17 2 -1 6 29 8 19 21 -17 21 -25 0 -53 13 -100 46 -36 25 -68 46 -72 46 -5 0 -85 60 -94 71 -3 3 -16 12 -28 18 -13 7 -21 15 -18 18 3 3 -8 13 -24 22 -110 59 -377 308 -512 478 -129 159 -254 371 -343 576 -52 119 -125 320 -125 342 0 6 21 -22 48 -61 61 -92 174 -236 179 -230 3 2 -18 62 -46 132 -28 70 -50 129 -47 131 2 2 25 -30 51 -73 46 -76 151 -224 159 -224 3 0 -29 100 -70 222 -119 355 -164 562 -184 843 -16 218 -4 373 45 570 20 83 44 161 51 175 13 22 14 22 9 3 -3 -12 -14 -71 -25 -131 -22 -129 -28 -500 -10 -623 17 -115 50 -268 72 -334 28 -85 89 -225 98 -225 4 0 10 35 14 78 6 76 23 205 32 251 5 23 7 23 85 19 50 -3 84 -10 89 -17 6 -10 9 -11 15 -1 6 9 32 11 99 6 50 -3 212 -9 360 -12 l269 -6 -6 44 c-4 24 -9 79 -12 123 -8 106 -14 132 -32 150 -18 18 -63 20 -63 3 0 -9 -3 -10 -8 -2 -8 12 -117 29 -254 40 -49 3 -88 10 -88 14 0 19 185 234 305 355 137 137 275 266 275 255 0 -5 5 -10 11 -10 5 0 8 4 4 9 -3 5 4 16 15 24 11 7 17 17 13 20 -3 4 1 7 10 7 9 0 19 5 23 12 5 7 2 9 -7 3 -8 -4 -1 4 15 19 16 14 34 26 39 26 6 0 7 3 4 7 -4 3 12 25 36 47 163 156 291 272 308 280 10 5 19 14 19 19 0 17 61 73 82 74 15 2 18 -2 12 -15z m-2148 -34 c-9 -12 -16 -17 -16 -10 0 14 23 42 29 37 1 -2 -4 -14 -13 -27z m3744 -129 c17 -31 7 -33 -20 -4 -19 20 -20 25 -7 25 9 0 21 -9 27 -21z m134 -35 c16 -8 35 -14 43 -14 7 0 13 -4 13 -10 0 -5 7 -10 15 -10 8 0 15 -4 15 -9 0 -5 8 -11 18 -14 23 -8 91 -33 127 -48 33 -13 31 -13 125 -29 36 -7 72 -15 80 -19 8 -4 35 -43 58 -87 32 -58 46 -96 52 -144 4 -36 13 -97 20 -137 6 -40 10 -85 8 -100 -4 -26 -5 -25 -17 15 -8 23 -18 42 -23 42 -4 0 -8 6 -8 13 0 20 -71 161 -86 170 -8 4 -14 14 -14 21 0 7 -62 40 -137 75 -180 82 -310 170 -343 232 -7 12 -16 35 -21 51 -8 29 -7 30 19 23 15 -3 40 -13 56 -21z m-1118 0 c19 -9 34 -20 34 -25 0 -5 11 -14 25 -19 13 -5 66 -40 117 -77 148 -109 139 -105 230 -101 l80 3 13 -42 c13 -42 64 -122 78 -123 4 0 -5 17 -21 38 -27 34 -60 117 -51 126 2 2 28 6 57 8 62 6 61 7 65 -117 1 -49 6 -78 12 -75 6 3 10 41 9 88 -1 45 2 82 7 82 4 0 56 -51 116 -114 l108 -113 130 -13 c72 -7 148 -14 171 -17 l41 -5 17 -76 c10 -43 20 -84 23 -92 4 -8 8 -24 9 -35 12 -81 33 -206 39 -235 5 -19 8 -43 6 -52 -1 -10 3 -18 9 -18 6 0 9 -4 6 -9 -3 -4 -1 -22 4 -39 5 -20 5 -34 -1 -38 -5 -3 -7 -9 -5 -13 3 -4 8 -33 11 -64 5 -43 3 -61 -8 -71 -12 -13 -17 -13 -36 0 -12 9 -19 20 -16 25 4 5 2 9 -4 9 -5 0 -25 21 -42 48 -18 26 -39 51 -46 55 -7 4 -13 14 -13 21 0 18 -138 156 -155 156 -8 0 -24 9 -35 20 -11 11 -29 20 -41 20 -11 0 -18 4 -14 9 3 6 -17 18 -45 28 -27 10 -50 21 -50 26 0 4 -4 5 -10 2 -5 -3 -10 -2 -10 4 0 5 -12 11 -27 13 -21 2 -28 8 -26 23 1 19 1 19 -11 3 -7 -10 -16 -15 -19 -11 -4 3 -7 1 -7 -5 0 -7 -11 -12 -25 -12 -17 0 -29 8 -37 25 -11 25 -30 35 -25 14 3 -17 -19 -22 -34 -7 -8 8 -28 24 -46 36 -19 13 -30 28 -27 37 4 9 -1 12 -13 11 -24 -4 -38 5 -23 14 7 4 1 11 -17 19 -15 7 -37 24 -47 38 l-19 26 31 -6 c19 -4 32 -2 32 3 0 6 -9 10 -20 10 -15 0 -20 7 -20 25 0 14 -5 25 -11 25 -5 0 -8 -4 -5 -9 3 -5 -1 -11 -9 -14 -8 -4 -16 2 -20 14 -7 20 -14 23 -52 19 -13 -1 -23 4 -23 12 -1 8 -5 7 -15 -5 -10 -14 -24 -18 -52 -16 -21 2 -41 8 -45 14 -5 6 -8 6 -8 -2 0 -22 -84 -16 -114 8 -22 18 -25 24 -14 38 10 13 10 14 -1 4 -11 -9 -19 -8 -37 4 -13 8 -24 21 -24 28 0 7 -9 15 -21 18 -12 3 -19 10 -16 14 11 17 -56 13 -112 -6 -112 -37 -309 -66 -385 -55 -70 9 -115 27 -181 68 -121 78 -192 165 -199 247 -2 24 -2 36 1 27 12 -48 121 -117 208 -133 47 -8 212 -8 274 1 l43 7 -5 47 c-3 25 -17 68 -31 95 -15 26 -24 50 -22 52 4 4 263 51 326 59 24 3 47 7 49 10 8 8 33 4 67 -12z m-476 -99 c7 -14 11 -27 8 -30 -3 -3 -97 -8 -208 -12 -202 -5 -219 -3 -220 28 0 3 75 12 168 19 92 6 169 14 171 16 2 2 19 4 36 4 23 0 35 -6 45 -25z m1264 -164 c3 -5 -1 -11 -9 -14 -9 -4 -12 -1 -8 9 6 16 10 17 17 5z m176 -152 c0 -6 -4 -7 -10 -4 -5 3 -10 11 -10 16 0 6 5 7 10 4 6 -3 10 -11 10 -16z m-578 -261 c-5 -20 -6 -19 -18 3 -9 18 -9 26 -1 31 15 9 26 -9 19 -34z m28 -8 c0 -5 -4 -10 -10 -10 -5 0 -10 5 -10 10 0 6 5 10 10 10 6 0 10 -4 10 -10z m346 -131 c3 -6 15 -8 27 -5 13 3 17 2 10 -5 -11 -11 -63 -1 -63 12 0 13 17 11 26 -2z m-402 -115 c3 -8 2 -12 -4 -9 -6 3 -10 10 -10 16 0 14 7 11 14 -7z m-3348 -464 c32 -11 81 -33 108 -48 49 -27 50 -28 66 -102 9 -41 22 -92 29 -113 7 -21 11 -40 9 -42 -2 -3 -31 16 -64 40 -64 49 -92 60 -199 76 -38 7 -76 13 -82 15 -9 2 -13 31 -13 99 l0 95 43 0 c24 0 70 -9 103 -20z m3983 -1134 c1 -5 -2 -6 -6 -3 -3 4 -12 2 -20 -4 -10 -9 -13 -7 -13 10 0 12 -4 20 -9 16 -5 -3 -2 9 6 27 l17 32 12 -34 c7 -19 13 -39 13 -44z m4 -23 c-7 -2 -13 -14 -14 -26 0 -12 -3 -16 -6 -9 -7 18 4 42 19 41 10 0 10 -2 1 -6z m-68 -103 c3 -5 1 -10 -4 -10 -6 0 -11 5 -11 10 0 6 2 10 4 10 3 0 8 -4 11 -10z m-613 -139 c-12 -10 -19 -21 -15 -25 3 -3 1 -6 -5 -6 -6 0 -14 -15 -18 -32 -7 -32 -8 -33 -15 -8 l-7 25 -7 -22 c-4 -13 -12 -20 -17 -17 -6 4 -8 -1 -4 -14 4 -12 2 -23 -5 -28 -7 -4 -9 -3 -5 4 3 6 2 13 -4 17 -9 6 -14 -13 -11 -41 2 -15 -49 -65 -60 -59 -4 3 -13 -4 -19 -15 -13 -24 -30 -26 -30 -4 0 13 -3 14 -14 5 -19 -16 -125 -22 -151 -9 -11 6 -28 20 -37 32 -13 16 -18 17 -19 6 0 -8 -4 -4 -8 10 -5 18 -13 24 -29 22 -12 -2 -22 1 -22 7 0 5 -13 18 -30 28 -33 19 -39 47 -13 57 17 7 438 72 508 79 22 2 44 4 49 5 5 1 -1 -6 -12 -17z m-241 -263 c-12 -4 -35 -5 -49 -1 l-27 7 30 6 c17 3 39 4 49 1 18 -4 18 -5 -3 -13z m2599 2 c0 -5 -4 -10 -9 -10 -6 0 -13 5 -16 10 -3 6 1 10 9 10 9 0 16 -4 16 -10z m15 -52 c17 -18 24 -28 16 -23 -10 5 -12 4 -7 -3 4 -7 14 -12 22 -12 8 0 14 -7 14 -15 0 -8 -9 -15 -20 -15 -11 0 -20 -5 -20 -11 0 -5 6 -7 13 -3 9 5 9 3 -1 -7 -11 -12 -14 -12 -23 1 -8 12 -9 10 -4 -7 4 -15 2 -23 -6 -23 -9 0 -8 -4 1 -15 10 -12 9 -15 -7 -15 -19 0 -30 35 -13 45 18 11 -2 35 -25 29 -15 -4 -24 0 -28 10 -8 20 24 22 53 4 10 -7 23 -8 27 -4 4 5 3 11 -4 13 -7 2 -10 10 -7 18 4 10 -1 12 -18 8 -19 -5 -21 -3 -10 8 6 7 12 21 12 31 0 23 0 23 35 -14z m-4422 -111 c71 -66 119 -107 127 -107 5 0 21 -10 37 -23 15 -13 87 -62 160 -109 73 -47 129 -88 126 -92 -4 -3 1 -6 10 -6 10 0 17 -4 17 -9 0 -5 9 -12 19 -16 13 -4 17 -12 14 -25 -4 -16 -2 -19 11 -14 10 4 18 0 22 -11 5 -13 9 -14 15 -3 7 10 9 9 9 -3 0 -19 159 -179 177 -179 7 0 19 -13 27 -28 8 -15 26 -34 40 -42 14 -7 26 -20 26 -27 0 -7 8 -16 18 -20 9 -3 32 -22 51 -42 24 -26 35 -32 38 -22 4 9 10 2 17 -20 6 -20 19 -35 30 -37 26 -5 58 -37 55 -53 -2 -8 0 -26 4 -42 10 -36 -16 -77 -50 -77 -19 0 -24 -4 -19 -16 8 -21 -4 -65 -15 -58 -5 3 -9 0 -9 -5 0 -6 -3 -11 -7 -11 -5 0 -8 20 -8 45 0 45 -8 58 -19 30 -3 -8 -12 -12 -21 -9 -8 4 -15 1 -15 -6 0 -10 -3 -10 -14 -1 -10 8 -16 9 -21 1 -3 -5 -1 -10 6 -10 10 0 10 -3 1 -12 -7 -7 -12 -23 -12 -36 0 -23 -2 -24 -47 -17 -27 4 -63 9 -82 10 -41 4 -49 11 -22 20 23 7 25 13 11 35 -6 9 -10 10 -10 3 0 -6 -15 -13 -32 -15 -28 -2 -34 -8 -36 -31 -2 -16 -8 -26 -15 -24 -7 2 -17 -3 -24 -12 -8 -10 -12 -11 -13 -4 0 6 5 15 10 18 12 7 14 65 2 65 -17 0 -21 -14 -9 -28 10 -13 9 -14 -1 -8 -9 5 -15 1 -19 -13 -7 -27 -20 -27 -28 0 -4 12 -12 18 -21 15 -11 -4 -13 1 -9 24 3 17 1 30 -5 30 -5 0 -10 9 -10 20 0 21 -14 27 -24 11 -6 -9 -13 -9 -53 4 -28 9 -28 13 -5 32 15 13 15 13 -5 4 -14 -7 -24 -8 -28 -1 -3 5 -2 10 3 10 6 0 8 9 5 20 -9 35 -39 7 -41 -39 l-3 -41 38 0 c30 0 40 -5 49 -24 l11 -24 -38 20 c-21 11 -43 17 -49 13 -5 -3 -13 2 -17 12 -3 10 -15 28 -26 40 -17 19 -19 27 -9 49 7 14 9 23 4 20 -4 -2 -14 -1 -22 4 -12 7 -12 12 3 28 19 20 23 37 7 27 -5 -3 -10 -2 -10 3 0 5 -13 8 -29 6 -21 -2 -31 2 -41 20 -7 13 -10 28 -6 34 3 5 -3 21 -14 35 -11 14 -20 30 -20 36 0 6 -6 11 -12 12 -10 0 -10 2 0 6 17 7 15 23 -4 23 -12 0 -15 6 -11 21 4 15 2 19 -9 15 -7 -3 -18 3 -24 14 -7 14 -7 20 0 20 5 0 10 7 10 16 0 8 -4 13 -8 10 -13 -8 -27 7 -49 54 -32 71 -37 91 -22 102 11 8 10 9 -3 5 -12 -4 -21 7 -38 48 -12 30 -19 59 -15 64 3 6 1 11 -6 11 -6 0 -9 8 -6 20 3 11 2 18 -3 15 -4 -3 -10 8 -13 23 -3 15 -13 54 -22 87 -15 58 -27 108 -44 187 -5 21 -6 40 -3 42 5 6 62 -37 115 -87z m4225 70 c6 -5 17 -5 22 -2 6 3 10 -1 10 -10 0 -12 -6 -15 -20 -10 -32 10 -24 -21 10 -42 34 -20 39 -36 10 -31 -10 2 -19 -1 -20 -7 0 -5 6 -10 13 -10 6 0 15 -4 19 -10 6 -9 28 34 28 56 0 6 5 7 10 4 6 -3 10 1 10 11 0 13 6 11 26 -11 17 -18 22 -31 16 -37 -12 -12 -35 -1 -27 13 3 5 0 6 -7 4 -8 -3 -19 -19 -25 -36 -7 -17 -21 -33 -33 -36 -16 -4 -18 -8 -8 -14 9 -6 4 -9 -16 -9 -16 0 -26 3 -23 7 4 3 2 12 -4 19 -8 9 -5 11 10 7 25 -6 28 12 4 21 -10 3 -23 9 -30 12 -6 3 -17 -5 -23 -17 -8 -14 -8 -19 -1 -15 6 4 16 -4 23 -19 9 -21 9 -28 -1 -35 -8 -4 -10 -13 -7 -19 8 -13 1 -13 -33 -4 -23 6 -23 7 -5 14 14 6 10 8 -17 8 -42 1 -63 20 -52 47 6 19 6 19 -15 0 -32 -28 -20 -56 26 -56 41 0 22 -20 -20 -21 -24 -1 -34 -4 -23 -6 11 -3 23 -11 27 -18 8 -13 54 -9 64 6 9 16 32 10 30 -8 -1 -12 5 -17 17 -15 9 2 17 -2 17 -8 0 -5 -12 -10 -26 -10 -14 0 -23 -4 -20 -9 8 -13 -38 -51 -81 -66 -21 -8 -32 -14 -25 -15 6 0 12 -5 12 -11 0 -5 -4 -8 -9 -4 -5 3 -20 -5 -33 -18 -13 -12 -32 -21 -43 -19 -19 3 -19 2 -2 -11 25 -21 21 -38 -9 -35 -15 2 -29 -3 -31 -9 -3 -7 3 -13 12 -13 9 0 13 -5 9 -11 -4 -8 -9 -8 -17 0 -13 13 -67 15 -67 2 0 -6 12 -9 26 -8 16 1 29 -4 32 -13 5 -13 3 -13 -12 -1 -15 12 -19 13 -26 1 -7 -11 -12 -11 -23 -2 -12 10 -16 9 -21 -4 -4 -11 2 -24 18 -37 13 -11 22 -26 19 -33 -4 -10 -10 -8 -24 9 -10 12 -18 17 -19 10 0 -6 5 -15 11 -19 22 -13 -36 -33 -103 -35 -9 0 -22 -7 -28 -15 -7 -7 -17 -11 -23 -7 -6 4 -8 -2 -5 -15 6 -23 -24 -37 -51 -23 -19 10 -41 4 -41 -11 0 -6 7 -7 16 -4 10 4 14 1 12 -6 -3 -7 -11 -13 -19 -13 -8 0 -23 -8 -33 -17 -21 -19 -41 -24 -31 -8 3 6 1 10 -5 10 -7 0 -10 -7 -7 -15 9 -21 -12 -30 -26 -12 -10 13 -14 14 -24 2 -10 -10 -9 -14 4 -19 13 -5 9 -11 -17 -31 -37 -27 -41 -29 -39 -17 4 23 -2 42 -11 37 -8 -5 -8 -11 0 -20 8 -9 6 -17 -5 -29 -11 -11 -12 -16 -4 -16 7 0 10 -3 6 -6 -9 -9 -67 -11 -67 -2 0 4 -4 8 -10 8 -5 0 -10 -11 -10 -25 0 -25 1 -25 25 -9 15 10 25 12 25 5 0 -6 -4 -11 -10 -11 -5 0 -10 -7 -10 -15 0 -9 -9 -15 -22 -15 -19 0 -20 -2 -8 -10 12 -7 8 -10 -14 -10 -23 0 -26 3 -17 13 13 16 5 28 -15 20 -8 -3 -14 0 -14 6 0 6 10 11 23 11 14 0 18 3 10 8 -9 6 -5 17 17 43 16 18 29 29 30 22 0 -6 -5 -14 -10 -16 -6 -3 -5 -4 2 -3 7 2 13 12 13 24 0 26 164 223 179 215 6 -3 8 -3 4 2 -11 11 12 36 25 28 6 -3 7 -1 3 5 -4 7 -2 12 3 12 6 0 11 7 11 15 0 9 10 15 23 16 12 0 16 3 8 6 -9 4 12 30 62 78 41 40 77 82 79 92 2 10 12 18 23 18 11 0 19 -6 17 -13 -1 -8 2 -11 8 -7 6 4 5 13 -2 25 -11 16 -9 22 7 34 11 9 26 16 33 16 6 0 12 5 12 10 0 19 39 50 56 43 11 -4 15 -1 12 12 -2 13 6 21 30 27 24 6 32 13 28 24 -4 10 0 14 11 12 10 -2 18 3 18 11 0 15 35 32 49 23 5 -3 7 2 3 10 -8 23 39 66 55 50 19 -19 29 -14 22 13 -5 21 -3 24 12 18 12 -4 15 -3 9 6 -6 10 -3 11 13 2 30 -16 37 -13 19 7 -25 27 -3 40 31 19z m52 -57 c0 -5 -2 -10 -4 -10 -3 0 -8 5 -11 10 -3 6 -1 10 4 10 6 0 11 -4 11 -10z m20 -152 c0 -4 6 -8 13 -8 11 0 47 -34 47 -44 0 -2 -12 -6 -27 -8 -16 -3 -37 -9 -48 -13 -17 -7 -16 -5 4 13 13 12 19 22 13 22 -7 0 -12 7 -12 15 0 8 -4 15 -10 15 -5 0 -10 4 -10 8 0 5 7 9 15 9 8 0 15 -4 15 -9z m-3156 -23 c-4 -8 -8 -15 -10 -15 -2 0 -4 7 -4 15 0 8 4 15 10 15 5 0 7 -7 4 -15z m3126 -18 c10 -4 8 -6 -7 -6 -16 -1 -23 5 -23 17 0 10 3 13 8 6 4 -6 14 -14 22 -17z m-3142 -62 c-3 -3 -9 2 -12 12 -6 14 -5 15 5 6 7 -7 10 -15 7 -18z m3327 4 c7 -9 -2 -9 -35 -3 -25 4 -60 8 -77 8 -18 0 -33 4 -33 9 0 13 131 0 145 -14z m-3920 1 c3 -5 1 -10 -4 -10 -6 0 -11 5 -11 10 0 6 2 10 4 10 3 0 8 -4 11 -10z m3890 -40 c13 0 25 4 27 9 2 5 12 3 22 -5 19 -13 19 -14 -6 -14 -14 0 -31 -7 -38 -15 -14 -17 -55 -21 -45 -4 4 6 13 8 21 5 8 -3 14 -1 14 4 0 6 -6 10 -14 10 -19 0 -29 17 -19 33 5 9 8 7 11 -5 2 -11 13 -18 27 -18z m-74 2 c-7 -2 -18 1 -23 6 -8 8 -4 9 13 5 13 -4 18 -8 10 -11z m-191 -12 c0 -5 -4 -10 -10 -10 -5 0 -10 5 -10 10 0 6 5 10 10 10 6 0 10 -4 10 -10z m150 -11 c0 -14 -16 -11 -29 5 -10 12 -8 13 8 9 12 -3 21 -9 21 -14z m-200 -19 c0 -5 -5 -10 -11 -10 -5 0 -7 5 -4 10 3 6 8 10 11 10 2 0 4 -4 4 -10z m40 0 c0 -5 -4 -10 -10 -10 -5 0 -10 5 -10 10 0 6 5 10 10 10 6 0 10 -4 10 -10z m51 1 c6 10 9 11 9 2 0 -7 10 -13 23 -13 22 0 22 -1 -3 -13 -14 -7 -24 -20 -24 -29 1 -10 -4 -14 -12 -11 -8 3 -14 9 -14 14 0 4 -8 6 -17 3 -13 -4 -15 -3 -5 4 7 5 15 18 17 28 5 29 6 30 12 15 5 -11 7 -11 14 0z m149 -21 c0 -5 -7 -10 -15 -10 -8 0 -15 -5 -15 -12 0 -6 -2 -9 -5 -6 -3 3 -3 13 1 22 7 17 34 22 34 6z m-215 -10 c3 -5 1 -10 -4 -10 -6 0 -11 5 -11 10 0 6 2 10 4 10 3 0 8 -4 11 -10z m-70 -10 c3 -5 -1 -10 -9 -10 -9 0 -16 5 -16 10 0 6 4 10 9 10 6 0 13 -4 16 -10z m35 -40 c0 -5 -11 -10 -24 -10 -14 0 -28 -4 -31 -10 -8 -13 -25 -13 -25 0 0 5 15 14 33 19 43 12 47 13 47 1z m110 -14 c0 -3 -4 -8 -10 -11 -5 -3 -10 -1 -10 4 0 6 5 11 10 11 6 0 10 -2 10 -4z m-110 -20 c0 -3 -4 -8 -10 -11 -5 -3 -10 -1 -10 4 0 6 5 11 10 11 6 0 10 -2 10 -4z m44 -4 c2 -4 -4 -8 -14 -8 -10 0 -16 4 -14 8 3 4 9 8 14 8 5 0 11 -4 14 -8z m-144 -16 c0 -3 -4 -8 -10 -11 -5 -3 -10 -1 -10 4 0 6 5 11 10 11 6 0 10 -2 10 -4z m45 -16 c-3 -5 -11 -10 -16 -10 -6 0 -7 5 -4 10 3 6 11 10 16 10 6 0 7 -4 4 -10z m-72 -35 c-3 -8 -12 -15 -19 -15 -12 0 -12 4 -4 20 12 23 32 18 23 -5z m-203 -96 c0 -5 -4 -8 -9 -4 -5 3 -12 1 -16 -5 -3 -5 -11 -10 -18 -10 -6 0 -2 7 9 15 23 17 34 19 34 4z m-3490 -259 c0 -5 -4 -10 -10 -10 -5 0 -10 5 -10 10 0 6 5 10 10 10 6 0 10 -4 10 -10z m3007 -77 c-18 -18 -35 -33 -39 -33 -10 0 2 31 19 51 8 9 11 24 6 34 -6 17 -5 17 19 -1 l26 -19 -31 -32z m-2197 6 c-13 -22 -25 -26 -16 -4 3 8 0 15 -7 15 -8 0 -7 4 3 9 21 14 32 3 20 -20z m-613 -104 c24 -25 7 -30 -18 -6 -13 12 -17 21 -10 21 7 0 19 -7 28 -15z m433 -25 c0 -13 -5 -18 -15 -14 -12 5 -13 10 -4 20 15 19 19 18 19 -6z m-7 -43 c4 3 7 -7 6 -23 0 -27 -1 -28 -9 -6 -5 12 -17 22 -25 22 -9 0 -13 5 -10 10 5 8 11 8 19 1 7 -6 16 -8 19 -4z m-223 -21 c0 -3 -4 -8 -10 -11 -5 -3 -10 -1 -10 4 0 6 5 11 10 11 6 0 10 -2 10 -4z m126 -11 c14 -13 13 -15 -5 -15 -21 0 -35 13 -24 24 9 9 13 8 29 -9z m184 -27 c0 -5 -4 -8 -10 -8 -5 0 -10 10 -10 23 0 18 2 19 10 7 5 -8 10 -18 10 -22z m-348 0 c-5 -19 -22 -25 -22 -8 0 5 -6 7 -14 4 -8 -3 -17 -1 -21 5 -3 6 0 9 8 5 8 -3 17 -1 21 4 10 17 33 9 28 -10z m58 12 c0 -5 -2 -10 -4 -10 -3 0 -8 5 -11 10 -3 6 -1 10 4 10 6 0 11 -4 11 -10z m40 -20 c0 -5 -2 -10 -4 -10 -3 0 -8 5 -11 10 -3 6 -1 10 4 10 6 0 11 -4 11 -10z m-259 -27 c13 -16 12 -17 -3 -4 -10 7 -18 15 -18 17 0 8 8 3 21 -13z m1609 -3 c0 -5 -5 -10 -11 -10 -5 0 -7 5 -4 10 3 6 8 10 11 10 2 0 4 -4 4 -10z m-145 -10 c-3 -5 -11 -10 -16 -10 -6 0 -7 5 -4 10 3 6 11 10 16 10 6 0 7 -4 4 -10z m102 -6 c-3 -3 -12 -4 -19 -1 -8 3 -5 6 6 6 11 1 17 -2 13 -5z m-1516 -27 c-10 -9 -11 -8 -5 6 3 10 9 15 12 12 3 -3 0 -11 -7 -18z m2319 -41 c0 -3 -4 -8 -10 -11 -5 -3 -10 -1 -10 4 0 6 5 11 10 11 6 0 10 -2 10 -4z" /><path d="M3730 4851 c0 -5 7 -14 15 -21 16 -14 18 -10 9 14 -6 17 -24 22 -24 7z" /><path d="M3710 4841 c0 -6 4 -13 10 -16 6 -3 7 1 4 9 -7 18 -14 21 -14 7z" /><path d="M3830 4821 c0 -6 5 -13 10 -16 6 -3 10 -1 10 5 0 6 4 9 9 5 5 -3 12 -1 16 5 4 6 -5 10 -19 10 -14 0 -26 -4 -26 -9z" /><path d="M3785 4810 c-3 -5 1 -10 9 -10 9 0 16 5 16 10 0 6 -4 10 -9 10 -6 0 -13 -4 -16 -10z" /><path d="M4030 4790 c0 -5 5 -10 10 -10 6 0 10 5 10 10 0 6 -4 10 -10 10 -5 0 -10 -4 -10 -10z" /><path d="M4061 4784 c0 -11 3 -14 6 -6 3 7 2 16 -1 19 -3 4 -6 -2 -5 -13z" /><path d="M4418 4673 c7 -3 16 -2 19 1 4 3 -2 6 -13 5 -11 0 -14 -3 -6 -6z" /><path d="M4498 4553 c7 -3 16 -2 19 1 4 3 -2 6 -13 5 -11 0 -14 -3 -6 -6z" /><path d="M3560 4778 c0 -4 4 -8 9 -8 6 0 12 4 15 8 3 5 -1 9 -9 9 -8 0 -15 -4 -15 -9z" /><path d="M3260 4179 c-45 -8 -316 -136 -307 -145 2 -3 64 24 136 60 72 36 151 68 176 72 25 3 48 10 51 15 6 10 6 10 -56 -2z" /><path d="M3379 4030 c-27 -20 -126 -50 -167 -50 -13 0 -38 -11 -55 -24 -63 -47 -250 -124 -309 -127 -16 -1 -18 -3 -6 -6 54 -14 214 41 296 101 46 34 70 45 116 50 69 9 115 27 140 55 24 26 19 26 -15 1z" /><path d="M4388 3973 c7 -3 16 -2 19 1 4 3 -2 6 -13 5 -11 0 -14 -3 -6 -6z" /><path d="M3520 3910 c0 -22 99 -220 110 -220 14 0 17 -9 -45 123 -45 97 -65 126 -65 97z" /><path d="M3485 3870 c-10 -31 83 -205 100 -188 7 7 -72 195 -85 203 -5 3 -11 -4 -15 -15z" /><path d="M3235 3817 c3 -34 19 -91 38 -133 33 -79 121 -205 147 -212 10 -2 11 -1 4 5 -19 13 -103 149 -132 211 -14 31 -34 86 -44 122 l-18 65 5 -58z" /><path d="M4017 3733 c-35 -49 -61 -93 -54 -93 2 0 25 32 51 70 53 80 55 94 3 23z" /><path d="M2886 3478 c6 -120 18 -183 35 -194 21 -12 22 8 6 84 -9 42 -17 86 -16 97 0 11 9 -18 20 -64 10 -46 21 -86 23 -88 13 -13 24 12 21 45 -4 35 -4 34 6 -7 21 -84 28 -25 10 80 -20 114 -39 169 -41 114 -1 -17 -4 -23 -7 -15 -25 67 -27 68 -33 10 l-7 -55 -1 47 c-1 26 -7 50 -12 53 -7 4 -8 -31 -4 -107z m71 0 c-3 -8 -6 -5 -6 6 -1 11 2 17 5 13 3 -3 4 -12 1 -19z m10 -60 c-3 -8 -6 -5 -6 6 -1 11 2 17 5 13 3 -3 4 -12 1 -19z" /><path d="M3015 3476 c3 -38 9 -74 15 -80 15 -15 11 61 -6 109 l-14 40 5 -69z" /><path d="M3463 3120 c0 -25 2 -35 4 -22 2 12 2 32 0 45 -2 12 -4 2 -4 -23z" /><path d="M2393 3120 c-153 -32 -298 -162 -324 -290 -12 -62 -2 -125 21 -125 8 0 33 -21 57 -46 81 -87 212 -139 347 -139 104 0 182 19 309 75 120 52 181 65 190 41 6 -16 -7 -29 -32 -33 -28 -4 -71 -26 -71 -36 0 -6 -3 -8 -6 -5 -5 6 -106 -43 -131 -64 -7 -5 -17 -7 -22 -4 -5 4 -27 0 -48 -7 -21 -7 -58 -14 -83 -15 -50 -3 -55 -6 -45 -22 5 -7 25 -9 58 -5 46 6 53 4 65 -15 12 -19 10 -24 -12 -45 -14 -12 -22 -26 -19 -29 6 -6 0 -8 -29 -10 -7 -1 -20 -8 -28 -16 -9 -8 -26 -22 -40 -31 -23 -15 -22 -16 28 -9 28 3 55 3 59 -1 5 -4 39 8 77 27 38 19 75 34 83 34 7 0 13 5 13 11 0 5 5 7 11 3 6 -3 14 -2 18 3 3 5 27 21 54 37 26 15 45 31 42 37 -4 5 1 9 9 9 27 0 53 52 53 107 0 29 5 59 12 67 16 19 -39 188 -80 249 -16 23 -29 47 -29 53 0 6 -24 33 -52 60 -29 27 -52 53 -50 57 1 5 -2 6 -7 3 -5 -4 -26 5 -47 19 -20 14 -60 32 -88 41 -60 19 -203 27 -263 14z" /><path d="M4674 3068 c-16 -20 -60 -58 -99 -86 -98 -71 -195 -102 -355 -112 -204 -14 -276 -32 -264 -65 4 -8 10 -15 15 -15 5 0 13 -8 16 -17 11 -29 26 -40 46 -35 10 3 28 -5 42 -18 14 -13 35 -24 47 -25 17 -1 24 -9 28 -31 4 -21 11 -30 28 -31 27 -3 29 13 2 20 -11 3 -20 12 -20 21 0 18 15 21 25 6 3 -5 24 -10 45 -10 30 0 38 -3 34 -14 -3 -8 -1 -17 5 -21 6 -3 11 0 11 7 0 9 3 9 10 -2 5 -8 10 -11 10 -6 0 5 6 3 14 -3 10 -8 16 -9 21 -1 3 6 10 8 15 5 4 -3 11 6 14 20 4 14 10 25 15 25 11 0 9 -19 -3 -39 -7 -11 -3 -13 20 -7 16 4 31 11 34 15 3 5 15 11 28 15 12 4 22 15 22 24 0 15 2 15 11 2 7 -11 12 -12 15 -3 3 7 12 9 20 6 9 -3 14 2 14 16 0 12 5 21 11 21 6 0 9 -7 5 -15 -3 -8 -1 -15 4 -15 5 0 12 10 15 21 5 16 9 18 15 9 5 -8 10 -2 15 19 3 17 12 31 19 31 14 0 36 41 36 65 0 8 8 15 18 16 10 0 12 3 5 6 -23 9 -14 23 12 19 14 -3 25 0 25 5 0 5 -6 9 -13 9 -11 0 -12 12 -4 60 5 33 14 60 18 60 5 0 9 5 9 11 0 6 -7 8 -16 5 -14 -5 -15 -4 -5 7 7 9 8 23 3 37 -8 22 -9 22 -38 -12z m-547 -354 c-3 -3 -12 -4 -19 -1 -8 3 -5 6 6 6 11 1 17 -2 13 -5z m330 -40 c-3 -3 -12 -4 -19 -1 -8 3 -5 6 6 6 11 1 17 -2 13 -5z m-114 -21 c-7 -2 -19 -2 -25 0 -7 3 -2 5 12 5 14 0 19 -2 13 -5z" /><path d="M3473 3025 c0 -27 2 -38 4 -22 2 15 2 37 0 50 -2 12 -4 0 -4 -28z" /><path d="M2906 3032 c-4 -7 -22 -13 -39 -13 -21 -1 -25 -3 -12 -6 11 -3 24 -9 30 -14 12 -12 28 -12 21 0 -4 5 -1 11 5 13 7 2 10 10 7 18 -3 10 -6 11 -12 2z" /><path d="M4230 2635 c0 -8 5 -15 10 -15 6 0 10 7 10 15 0 8 -4 15 -10 15 -5 0 -10 -7 -10 -15z" /><path d="M3895 2620 c3 -5 8 -10 11 -10 2 0 4 5 4 10 0 6 -5 10 -11 10 -5 0 -7 -4 -4 -10z" /><path d="M3990 2610 c0 -5 5 -10 11 -10 5 0 7 5 4 10 -3 6 -8 10 -11 10 -2 0 -4 -4 -4 -10z" /><path d="M3891 2554 c0 -11 3 -14 6 -6 3 7 2 16 -1 19 -3 4 -6 -2 -5 -13z" /><path d="M4005 2548 c4 -23 2 -28 -15 -28 -12 0 -20 -7 -20 -17 0 -14 -2 -15 -9 -4 -6 8 -16 11 -31 6 -15 -5 -25 -2 -31 6 -4 7 -11 10 -15 6 -11 -10 1 -18 37 -26 30 -6 31 -8 16 -23 -20 -20 -22 -31 -4 -25 6 2 26 -4 43 -13 24 -14 33 -15 47 -5 9 7 17 17 17 24 0 6 5 11 11 11 5 0 7 -5 4 -11 -4 -6 2 -13 14 -16 55 -14 3 -29 -84 -24 -26 1 -28 0 -14 -11 9 -7 15 -21 13 -30 -2 -13 4 -15 32 -11 23 4 34 2 34 -6 0 -8 -8 -10 -19 -6 -10 3 -30 0 -45 -6 -19 -9 -25 -18 -22 -35 3 -13 0 -27 -6 -30 -8 -5 -9 6 -6 33 6 39 5 40 -24 41 -36 1 -48 10 -28 22 8 5 11 12 7 16 -8 9 -36 -25 -37 -43 0 -7 -4 -13 -10 -13 -5 0 -7 7 -4 15 4 9 0 15 -10 15 -23 0 -31 -4 -28 -13 4 -12 -50 -29 -76 -24 -18 3 -21 1 -17 -13 4 -13 -2 -21 -24 -28 -16 -6 -31 -8 -33 -6 -3 2 -5 -2 -6 -8 0 -7 -4 -23 -7 -35 -5 -15 -3 -23 5 -23 10 0 10 -3 0 -15 -10 -13 -9 -15 8 -15 14 0 20 -5 16 -14 -7 -19 16 -32 27 -15 7 11 9 10 9 -3 0 -12 -8 -18 -25 -18 -18 0 -23 -4 -18 -16 3 -8 12 -13 19 -10 9 3 14 -2 14 -14 0 -10 4 -21 10 -25 5 -3 9 7 9 22 0 54 3 64 18 51 7 -6 17 -8 20 -4 4 4 1 11 -6 15 -9 6 -5 9 13 9 15 0 29 -5 32 -9 3 -5 10 -7 15 -4 5 4 9 1 9 -4 0 -6 -8 -11 -17 -11 -15 0 -16 -2 -3 -10 10 -7 11 -10 2 -10 -7 0 -15 7 -18 15 -11 27 -24 5 -24 -40 0 -49 15 -68 26 -33 12 40 39 49 47 17 5 -18 12 -21 41 -17 20 2 38 -1 40 -7 2 -5 5 -4 5 3 1 9 6 10 20 2 14 -7 22 -7 26 0 5 8 12 7 22 -1 9 -9 17 -9 21 -2 4 5 23 15 42 21 30 10 32 10 18 -2 -19 -14 -25 -32 -8 -21 6 4 17 2 25 -5 9 -8 15 -8 20 0 5 8 12 7 23 -2 15 -11 15 -11 4 4 -10 12 -10 18 -1 23 6 4 14 3 18 -3 3 -5 28 -7 60 -4 40 3 55 9 58 22 3 12 11 16 24 13 11 -3 19 -2 18 3 -3 20 14 52 30 57 10 2 17 13 16 24 -1 18 -8 29 -43 68 -7 8 -10 20 -6 26 4 7 3 9 -4 5 -6 -3 -13 -2 -17 4 -3 5 -17 7 -31 4 -28 -7 -33 10 -6 25 15 9 14 11 -8 12 -14 1 -31 1 -39 0 -7 -2 -10 2 -7 8 4 5 2 12 -4 16 -5 3 -10 -1 -10 -10 0 -9 -6 -15 -12 -12 -7 2 -12 12 -10 21 2 9 -2 24 -7 34 -8 12 -10 13 -11 3 0 -11 -6 -9 -20 7 -26 28 -25 32 8 32 l27 1 -33 14 c-18 8 -39 14 -45 12 -7 -1 -11 6 -11 15 1 13 -5 15 -32 11 -44 -7 -65 2 -57 23 6 16 7 16 13 -2 6 -16 8 -14 14 13 5 19 3 39 -4 50 -10 15 -10 14 -5 -9z m-22 -92 c4 -10 1 -13 -9 -9 -15 6 -19 23 -5 23 5 0 11 -7 14 -14z m107 -80 c0 -3 -4 -8 -10 -11 -5 -3 -10 -1 -10 4 0 6 5 11 10 11 6 0 10 -2 10 -4z m-319 -84 c-7 -2 -18 1 -23 6 -8 8 -4 9 13 5 13 -4 18 -8 10 -11z m85 2 c13 -3 21 -10 18 -16 -3 -5 -11 -4 -20 3 -11 9 -14 8 -15 -7 -1 -11 -1 -23 0 -27 1 -5 -3 -6 -8 -2 -6 3 -7 13 -4 22 5 12 3 14 -6 8 -8 -4 -17 -2 -21 6 -11 18 -2 32 17 25 8 -4 26 -9 39 -12z m229 -44 c3 -5 1 -10 -4 -10 -6 0 -11 5 -11 10 0 6 2 10 4 10 3 0 8 -4 11 -10z m-211 -32 c-3 -4 -9 -8 -15 -8 -5 0 -9 4 -9 8 0 5 7 9 15 9 8 0 12 -4 9 -9z m126 -3 c0 -8 -4 -15 -10 -15 -5 0 -10 7 -10 15 0 8 5 15 10 15 6 0 10 -7 10 -15z m-50 -40 c-6 -8 -8 -20 -4 -27 4 -6 -7 -1 -25 12 l-34 23 34 11 c36 12 48 4 29 -19z m90 10 c0 -8 -4 -15 -10 -15 -5 0 -10 7 -10 15 0 8 5 15 10 15 6 0 10 -7 10 -15z m-185 -25 c3 -5 2 -10 -4 -10 -5 0 -13 5 -16 10 -3 6 -2 10 4 10 5 0 13 -4 16 -10z m65 -20 c8 -5 11 -12 7 -16 -4 -4 -15 0 -24 9 -18 18 -8 23 17 7z m337 -62 c-3 -8 -6 -5 -6 6 -1 11 2 17 5 13 3 -3 4 -12 1 -19z m-367 2 c0 -5 -7 -10 -15 -10 -8 0 -15 5 -15 10 0 6 7 10 15 10 8 0 15 -4 15 -10z m347 4 c-3 -3 -12 -4 -19 -1 -8 3 -5 6 6 6 11 1 17 -2 13 -5z m-254 -11 c-7 -2 -19 -2 -25 0 -7 3 -2 5 12 5 14 0 19 -2 13 -5z" /><path d="M3925 2180 c-3 -5 -1 -10 4 -10 6 0 11 5 11 10 0 6 -2 10 -4 10 -3 0 -8 -4 -11 -10z" /><path d="M3920 2550 c0 -5 5 -10 10 -10 6 0 10 5 10 10 0 6 -4 10 -10 10 -5 0 -10 -4 -10 -10z" /><path d="M3955 2550 c3 -5 8 -10 11 -10 2 0 4 5 4 10 0 6 -5 10 -11 10 -5 0 -7 -4 -4 -10z" /><path d="M4030 2505 c0 -8 9 -15 20 -15 24 0 27 15 4 24 -22 9 -24 8 -24 -9z" /><path d="M3887 2454 c3 -7 9 -14 14 -14 14 0 10 17 -5 23 -10 4 -13 1 -9 -9z" /><path d="M3850 2390 c0 -5 5 -10 11 -10 5 0 7 5 4 10 -3 6 -8 10 -11 10 -2 0 -4 -4 -4 -10z" /><path d="M3926 2375 c4 -8 10 -12 15 -9 14 8 10 24 -6 24 -9 0 -12 -6 -9 -15z" /><path d="M3628 2353 c7 -3 16 -2 19 1 4 3 -2 6 -13 5 -11 0 -14 -3 -6 -6z" /><path d="M3670 2321 c0 -10 19 -25 25 -20 1 2 -3 10 -11 17 -8 7 -14 8 -14 3z" /><path d="M3526 2246 c-3 -13 -14 -26 -23 -29 -10 -2 -27 -8 -38 -13 -17 -6 -18 -5 -8 7 10 12 8 15 -6 15 -13 0 -17 -6 -13 -21 5 -18 4 -18 -11 -6 -15 12 -17 11 -17 -4 0 -11 -5 -15 -15 -11 -10 3 -15 1 -13 -7 1 -6 -3 -21 -9 -33 -7 -12 -8 -25 -2 -35 13 -21 11 -25 -15 -37 -19 -8 -26 -8 -30 1 -3 9 -5 9 -5 0 -1 -8 -15 -13 -37 -13 -19 0 -33 4 -30 9 4 5 -5 8 -19 6 -14 -1 -25 2 -25 6 0 5 -7 9 -15 9 -23 0 -18 -26 9 -38 62 -28 199 -18 267 19 13 7 30 12 38 10 9 -1 12 3 8 13 -6 15 15 40 26 30 8 -9 17 28 13 59 -2 15 0 27 5 27 4 0 1 14 -7 30 -19 36 -20 37 -28 6z" /><path d="M3592 2250 c0 -14 2 -19 5 -12 2 6 2 18 0 25 -3 6 -5 1 -5 -13z" /><path d="M3423 2249 c-18 -5 -33 -12 -33 -15 0 -9 53 5 65 17 10 10 11 10 -32 -2z" /><path d="M3380 2210 c0 -5 5 -10 11 -10 5 0 7 5 4 10 -3 6 -8 10 -11 10 -2 0 -4 -4 -4 -10z" /><path d="M3590 2210 c8 -5 22 -9 30 -9 10 0 8 3 -5 9 -27 12 -43 12 -25 0z" /><path d="M3640 2092 c0 -5 7 -9 15 -9 8 0 15 4 15 9 0 4 -7 8 -15 8 -8 0 -15 -4 -15 -8z" /><path d="M3751 2064 c0 -11 3 -14 6 -6 3 7 2 16 -1 19 -3 4 -6 -2 -5 -13z" /><path d="M3651 1444 c0 -11 3 -14 6 -6 3 7 2 16 -1 19 -3 4 -6 -2 -5 -13z" /><path d="M2941 1194 c0 -11 3 -14 6 -6 3 7 2 16 -1 19 -3 4 -6 -2 -5 -13z" /><path d="M3340 1109 c0 -5 5 -7 10 -4 6 3 10 8 10 11 0 2 -4 4 -10 4 -5 0 -10 -5 -10 -11z" /><path d="M3370 1090 c0 -5 5 -10 10 -10 6 0 10 5 10 10 0 6 -4 10 -10 10 -5 0 -10 -4 -10 -10z" /><path d="M4130 4467 c0 -13 68 -77 92 -86 52 -19 70 -20 28 0 -25 11 -62 37 -82 57 -21 20 -38 33 -38 29z" /><path d="M4777 3869 c4 -13 8 -18 11 -10 2 7 -1 18 -6 23 -8 8 -9 4 -5 -13z" /><path d="M4815 3831 c-3 -5 -2 -12 3 -15 5 -3 9 1 9 9 0 17 -3 19 -12 6z" /><path d="M5500 3359 c0 -5 5 -7 10 -4 6 3 10 8 10 11 0 2 -4 4 -10 4 -5 0 -10 -5 -10 -11z" /><path d="M4345 1600 c4 -6 11 -8 16 -5 14 9 11 15 -7 15 -8 0 -12 -5 -9 -10z" /><path d="M2640 920 c0 -5 5 -10 11 -10 5 0 7 5 4 10 -3 6 -8 10 -11 10 -2 0 -4 -4 -4 -10z" /><path d="M2530 886 c0 -8 4 -17 9 -20 5 -4 7 3 4 14 -6 23 -13 26 -13 6z" /><path d="M2660 659 c0 -5 5 -7 10 -4 6 3 10 8 10 11 0 2 -4 4 -10 4 -5 0 -10 -5 -10 -11z" /><path d="M2746 617 c3 -10 9 -15 12 -12 3 3 0 11 -7 18 -10 9 -11 8 -5 -6z" /><path d="M2686 608 c3 -5 9 -7 12 -4 3 3 11 1 19 -5 9 -9 13 -8 13 0 0 6 -3 11 -7 12 -5 0 -16 2 -26 4 -9 2 -14 -1 -11 -7z" /><path d="M2690 564 c0 -8 5 -12 10 -9 6 3 10 10 10 16 0 5 -4 9 -10 9 -5 0 -10 -7 -10 -16z" /><path d="M2765 560 c3 -5 8 -10 11 -10 2 0 4 5 4 10 0 6 -5 10 -11 10 -5 0 -7 -4 -4 -10z" /><path d="M3485 490 c-3 -5 -1 -10 4 -10 6 0 11 5 11 10 0 6 -2 10 -4 10 -3 0 -8 -4 -11 -10z" /><path d="M3480 454 c0 -8 5 -12 10 -9 6 4 8 11 5 16 -9 14 -15 11 -15 -7z" /><path d="M2770 433 c1 -18 18 -35 24 -24 4 6 4 16 1 21 -7 12 -25 13 -25 3z" /><path d="M3495 400 c4 -6 11 -8 16 -5 14 9 11 15 -7 15 -8 0 -12 -5 -9 -10z" /><path d="M3275 380 c3 -5 10 -10 16 -10 5 0 9 5 9 10 0 6 -7 10 -16 10 -8 0 -12 -4 -9 -10z" /><path d="M3200 340 c0 -5 7 -7 15 -4 8 4 15 8 15 10 0 2 -7 4 -15 4 -8 0 -15 -4 -15 -10z" /><path d="M2990 330 c0 -5 5 -10 10 -10 6 0 10 5 10 10 0 6 -4 10 -10 10 -5 0 -10 -4 -10 -10z" /><path d="M3082 280 c0 -14 2 -19 5 -12 2 6 2 18 0 25 -3 6 -5 1 -5 -13z" /><path d="M3218 293 c7 -3 16 -2 19 1 4 3 -2 6 -13 5 -11 0 -14 -3 -6 -6z" /><path d="M6670 1365 c0 -9 5 -15 11 -13 6 2 11 8 11 13 0 5 -5 11 -11 13 -6 2 -11 -4 -11 -13z" /><path d="M6561 1348 c-6 -17 -4 -26 8 -35 9 -6 18 -9 21 -7 2 3 -2 9 -10 14 -11 7 -11 11 -1 23 8 11 9 17 1 22 -5 3 -14 -4 -19 -17z" /><path d="M6638 1258 c9 -9 15 -9 24 0 9 9 7 12 -12 12 -19 0 -21 -3 -12 -12z" /><path d="M6450 1220 c0 -5 5 -10 11 -10 5 0 7 5 4 10 -3 6 -8 10 -11 10 -2 0 -4 -4 -4 -10z" /><path d="M6438 1163 c7 -3 16 -2 19 1 4 3 -2 6 -13 5 -11 0 -14 -3 -6 -6z" /><path d="M6569 1153 c-13 -15 -12 -16 9 -11 13 4 22 2 22 -5 0 -7 4 -6 9 3 20 30 -16 42 -40 13z" /><path d="M6530 1130 c0 -13 28 -25 38 -16 3 4 0 11 -8 16 -20 13 -30 12 -30 0z" /><path d="M6440 1095 c-20 -11 -21 -14 -7 -15 10 0 15 -5 12 -10 -4 -6 -9 -9 -13 -6 -4 2 -16 0 -27 -5 -19 -7 -19 -8 -1 -8 15 -1 16 -4 6 -16 -7 -9 -10 -18 -7 -21 9 -9 27 5 27 20 0 8 11 16 25 18 14 3 25 1 25 -4 0 -5 5 -8 11 -6 6 2 10 8 9 13 -1 6 11 15 26 21 l27 11 -29 7 c-16 4 -36 9 -44 11 -8 2 -26 -2 -40 -10z" /><path d="M6331 1073 c-1 -12 4 -25 9 -28 12 -7 12 2 0 30 -8 19 -9 19 -9 -2z" /><path d="M6285 1030 c3 -5 8 -10 11 -10 2 0 4 5 4 10 0 6 -5 10 -11 10 -5 0 -7 -4 -4 -10z" /><path d="M6210 1010 c0 -6 7 -10 15 -10 8 0 15 2 15 4 0 2 -7 6 -15 10 -8 3 -15 1 -15 -4z" /><path d="M6167 974 c3 -8 9 -14 14 -14 5 0 12 0 17 0 18 0 5 25 -15 26 -14 1 -20 -3 -16 -12z" /><path d="M6310 971 c0 -6 4 -13 10 -16 6 -3 7 1 4 9 -7 18 -14 21 -14 7z" /><path d="M6360 970 c-12 -8 -10 -10 8 -10 13 0 20 4 17 10 -7 12 -6 12 -25 0z" /><path d="M6135 960 c-3 -5 -1 -10 4 -10 6 0 11 5 11 10 0 6 -2 10 -4 10 -3 0 -8 -4 -11 -10z" /><path d="M6135 930 c3 -5 11 -10 16 -10 6 0 7 5 4 10 -3 6 -11 10 -16 10 -6 0 -7 -4 -4 -10z" /><path d="M6250 910 c8 -5 22 -9 30 -9 10 0 8 3 -5 9 -27 12 -43 12 -25 0z" /><path d="M6080 868 c0 -19 2 -20 10 -8 13 19 13 30 0 30 -5 0 -10 -10 -10 -22z" /><path d="M6130 860 c0 -5 5 -10 10 -10 6 0 10 5 10 10 0 6 -4 10 -10 10 -5 0 -10 -4 -10 -10z" /><path d="M6224 861 c3 -5 15 -7 26 -4 28 7 25 13 -6 13 -14 0 -23 -4 -20 -9z" /><path d="M6171 833 c0 -11 3 -13 6 -5 2 6 9 10 14 6 5 -3 9 0 9 5 0 6 -7 11 -15 11 -8 0 -15 -8 -14 -17z" /><path d="M6265 830 c-28 -7 -27 -8 13 -9 27 -1 41 3 37 9 -7 11 -7 11 -50 0z" /><path d="M6185 810 c-3 -5 -1 -10 4 -10 6 0 11 5 11 10 0 6 -2 10 -4 10 -3 0 -8 -4 -11 -10z" /><path d="M6022 784 c-7 -8 -8 -14 -3 -14 10 0 25 19 20 25 -2 1 -10 -3 -17 -11z" /><path d="M5895 670 c3 -5 8 -10 11 -10 2 0 4 5 4 10 0 6 -5 10 -11 10 -5 0 -7 -4 -4 -10z" /><path d="M2607 6984 c-8 -8 1 -24 14 -24 5 0 9 7 9 15 0 15 -12 20 -23 9z" /><path d="M2697 6920 c-3 -11 -1 -22 3 -25 12 -8 41 6 34 16 -3 5 -10 7 -15 4 -5 -3 -6 1 -3 9 3 9 2 16 -4 16 -5 0 -12 -9 -15 -20z" /><path d="M2670 6920 c0 -5 5 -10 10 -10 6 0 10 5 10 10 0 6 -4 10 -10 10 -5 0 -10 -4 -10 -10z" /><path d="M2570 6904 c0 -10 5 -26 10 -34 8 -11 9 -7 4 15 -8 37 -14 45 -14 19z" /><path d="M2580 6815 c0 -28 4 -35 20 -35 11 0 20 5 20 10 0 6 -7 10 -15 10 -8 0 -15 7 -15 15 0 8 3 14 8 14 4 -1 14 -1 22 0 13 1 13 2 0 11 -28 18 -40 11 -40 -25z" /><path d="M2601 6723 c-1 -12 4 -25 9 -28 6 -4 7 -11 4 -17 -4 -7 -2 -8 4 -4 8 5 9 13 3 24 -4 9 -11 24 -14 32 -4 10 -6 8 -6 -7z" /><path d="M2018 6465 c13 -24 72 -89 72 -78 -1 4 -19 28 -41 53 -23 25 -36 36 -31 25z" /><path d="M2120 6360 c0 -5 7 -7 15 -4 8 4 15 8 15 10 0 2 -7 4 -15 4 -8 0 -15 -4 -15 -10z" /><path d="M1940 6282 c0 -12 19 -26 26 -19 2 2 -2 10 -11 17 -9 8 -15 8 -15 2z" /><path d="M2290 6251 c0 -5 5 -13 10 -16 6 -3 10 -2 10 4 0 5 -4 13 -10 16 -5 3 -10 2 -10 -4z" /><path d="M1969 6223 c5 -10 12 -26 15 -35 8 -28 24 -21 18 7 -2 14 -13 30 -24 36 -16 9 -18 8 -9 -8z" /><path d="M2265 6210 c3 -5 8 -10 11 -10 2 0 4 5 4 10 0 6 -5 10 -11 10 -5 0 -7 -4 -4 -10z" /><path d="M2243 6193 c3 -16 1 -23 -9 -23 -8 0 -11 6 -7 17 4 11 3 14 -5 9 -21 -13 -13 -36 12 -36 32 0 38 11 19 35 -15 20 -15 20 -10 -2z" /><path d="M2120 6135 c0 -8 5 -15 10 -15 6 0 10 7 10 15 0 8 -4 15 -10 15 -5 0 -10 -7 -10 -15z" /><path d="M6815 5778 c-2 -7 -5 -26 -7 -43 -2 -19 -11 -34 -26 -41 -21 -11 -22 -13 -7 -28 12 -11 35 -16 80 -16 55 0 63 3 68 21 4 13 -1 26 -14 37 -10 9 -19 26 -19 39 0 24 -3 27 -43 37 -18 4 -29 2 -32 -6z" /><path d="M6400 5730 c0 -5 5 -10 10 -10 6 0 10 5 10 10 0 6 -4 10 -10 10 -5 0 -10 -4 -10 -10z" /><path d="M6445 5720 c-3 -5 -1 -10 4 -10 6 0 11 5 11 10 0 6 -2 10 -4 10 -3 0 -8 -4 -11 -10z" /><path d="M6476 5721 c-3 -5 1 -11 9 -15 9 -3 15 0 15 9 0 16 -16 20 -24 6z" /><path d="M6520 5710 c0 -5 5 -10 10 -10 6 0 10 5 10 10 0 6 -4 10 -10 10 -5 0 -10 -4 -10 -10z" /><path d="M6565 5700 c-3 -5 1 -10 9 -10 9 0 16 5 16 10 0 6 -4 10 -9 10 -6 0 -13 -4 -16 -10z" /><path d="M6610 5700 c0 -5 5 -10 10 -10 6 0 10 5 10 10 0 6 -4 10 -10 10 -5 0 -10 -4 -10 -10z" /><path d="M6660 5695 c7 -8 17 -15 22 -15 6 0 5 7 -2 15 -7 8 -17 15 -22 15 -6 0 -5 -7 2 -15z" /><path d="M6700 5689 c0 -5 11 -9 25 -9 14 0 25 2 25 4 0 2 -11 6 -25 8 -14 3 -25 1 -25 -3z" /><path d="M6445 2260 c3 -5 11 -10 16 -10 6 0 7 5 4 10 -3 6 -11 10 -16 10 -6 0 -7 -4 -4 -10z" /><path d="M6480 2240 c0 -5 5 -10 11 -10 5 0 7 5 4 10 -3 6 -8 10 -11 10 -2 0 -4 -4 -4 -10z" /><path d="M6516 2201 c-3 -5 1 -12 10 -15 27 -10 36 -7 20 9 -17 17 -23 18 -30 6z" /><path d="M6584 2129 c-4 -7 -3 -9 4 -5 6 3 12 -2 14 -11 2 -12 6 -14 11 -7 4 7 0 17 -7 23 -11 9 -16 9 -22 0z" /><path d="M6740 1940 c-13 -8 -12 -10 3 -10 9 0 17 5 17 10 0 12 -1 12 -20 0z" /><path d="M6752 1911 c2 -7 7 -12 11 -12 12 1 9 15 -3 20 -7 2 -11 -2 -8 -8z" /><path d="M6555 1890 c3 -5 8 -10 11 -10 2 0 4 5 4 10 0 6 -5 10 -11 10 -5 0 -7 -4 -4 -10z" /><path d="M6590 1870 c0 -5 4 -10 9 -10 6 0 13 5 16 10 3 6 -1 10 -9 10 -9 0 -16 -4 -16 -10z" /><path d="M6525 1860 c3 -5 8 -10 11 -10 2 0 4 5 4 10 0 6 -5 10 -11 10 -5 0 -7 -4 -4 -10z" /><path d="M6676 1834 c-11 -8 -16 -14 -10 -14 13 0 39 18 34 24 -3 2 -14 -2 -24 -10z" /><path d="M6787 1819 c7 -7 15 -10 18 -7 3 3 -2 9 -12 12 -14 6 -15 5 -6 -5z" /><path d="M6600 1783 c0 -20 3 -33 7 -29 11 11 12 66 2 66 -5 0 -9 -16 -9 -37z" /><path d="M6833 1803 c2 -12 6 -26 10 -29 11 -11 8 19 -3 36 -8 12 -9 10 -7 -7z" /><path d="M6627 1736 c-6 -15 1 -26 15 -26 11 0 10 27 -1 34 -5 3 -11 0 -14 -8z" /><path d="M6788 1743 c6 -2 18 -2 25 0 6 3 1 5 -13 5 -14 0 -19 -2 -12 -5z" /><path d="M6874 1732 c0 -10 -6 -17 -16 -17 -9 0 -20 -4 -25 -9 -4 -5 6 -6 25 -3 28 6 34 3 41 -15 4 -12 10 -17 14 -11 4 6 0 16 -8 23 -8 7 -15 18 -15 26 0 7 -4 15 -9 18 -5 3 -8 -2 -7 -12z" /><path d="M6660 1730 c0 -5 5 -10 10 -10 6 0 10 5 10 10 0 6 -4 10 -10 10 -5 0 -10 -4 -10 -10z" /><path d="M6698 1733 c7 -3 16 -2 19 1 4 3 -2 6 -13 5 -11 0 -14 -3 -6 -6z" /><path d="M6560 1721 c0 -6 4 -13 10 -16 6 -3 7 1 4 9 -7 18 -14 21 -14 7z" /><path d="M6595 1710 c-3 -5 1 -10 10 -10 9 0 13 5 10 10 -3 6 -8 10 -10 10 -2 0 -7 -4 -10 -10z" /><path d="M6713 1704 c-5 -13 -7 -13 -14 -2 -7 10 -9 9 -9 -4 0 -22 14 -23 33 -3 8 8 17 11 21 8 3 -4 6 -1 6 5 0 18 -30 14 -37 -4z" /><path d="M6829 1670 c25 -22 46 -25 56 -10 3 6 -3 10 -14 10 -11 0 -23 5 -26 10 -3 6 -14 10 -23 10 -14 -1 -13 -4 7 -20z" /><path d="M6550 1666 c0 -2 7 -7 16 -10 8 -3 12 -2 9 4 -6 10 -25 14 -25 6z" /><path d="M6920 1660 c0 -5 5 -10 11 -10 5 0 7 5 4 10 -3 6 -8 10 -11 10 -2 0 -4 -4 -4 -10z" /><path d="M6590 1653 c0 -7 4 -14 10 -18 5 -3 6 -13 3 -23 -5 -13 -3 -14 7 -5 10 9 9 16 -4 34 -9 13 -16 18 -16 12z" /><path d="M6750 1645 c0 -8 5 -15 10 -15 6 0 10 7 10 15 0 8 -4 15 -10 15 -5 0 -10 -7 -10 -15z" /><path d="M6801 1638 c-1 -16 4 -28 9 -28 12 0 12 8 0 35 -8 18 -9 17 -9 -7z" /><path d="M6465 1640 c3 -5 8 -10 11 -10 2 0 4 5 4 10 0 6 -5 10 -11 10 -5 0 -7 -4 -4 -10z" /><path d="M6710 1640 c0 -5 5 -10 10 -10 6 0 10 5 10 10 0 6 -4 10 -10 10 -5 0 -10 -4 -10 -10z" /><path d="M6635 1627 c-4 -10 -5 -21 -1 -24 10 -10 18 4 13 24 -4 17 -4 17 -12 0z" /><path d="M6836 1625 c-3 -8 -1 -15 4 -15 13 0 22 18 11 24 -5 3 -11 -1 -15 -9z" /><path d="M6565 1620 c-3 -5 -1 -10 4 -10 6 0 11 5 11 10 0 6 -2 10 -4 10 -3 0 -8 -4 -11 -10z" /><path d="M6450 1610 c0 -11 40 -34 46 -27 3 2 2 11 -1 18 -6 16 -45 23 -45 9z" /><path d="M6532 1590 c0 -14 2 -19 5 -12 2 6 2 18 0 25 -3 6 -5 1 -5 -13z" /><path d="M6686 1597 c3 -10 9 -15 12 -12 3 3 0 11 -7 18 -10 9 -11 8 -5 -6z" /><path d="M6850 1590 c0 -5 5 -10 11 -10 5 0 7 5 4 10 -3 6 -8 10 -11 10 -2 0 -4 -4 -4 -10z" /><path d="M6890 1573 c0 -16 6 -23 20 -23 21 0 28 24 10 35 -5 3 -10 0 -10 -7 0 -9 -3 -9 -10 2 -8 12 -10 11 -10 -7z" /><path d="M1392 1560 c0 -14 2 -19 5 -12 2 6 2 18 0 25 -3 6 -5 1 -5 -13z" /><path d="M6440 1570 c0 -5 5 -10 10 -10 6 0 10 5 10 10 0 6 -4 10 -10 10 -5 0 -10 -4 -10 -10z" /><path d="M6557 1573 c-4 -3 -7 -11 -7 -17 0 -6 5 -5 12 2 6 6 9 14 7 17 -3 3 -9 2 -12 -2z" /><path d="M6645 1570 c3 -5 8 -10 11 -10 2 0 4 5 4 10 0 6 -5 10 -11 10 -5 0 -7 -4 -4 -10z" /><path d="M6405 1560 c-3 -5 -1 -10 4 -10 6 0 11 5 11 10 0 6 -2 10 -4 10 -3 0 -8 -4 -11 -10z" /><path d="M6795 1560 c-3 -5 3 -10 15 -10 12 0 18 5 15 10 -3 6 -10 10 -15 10 -5 0 -12 -4 -15 -10z" /><path d="M6748 1546 c-17 -12 -17 -14 1 -30 17 -16 18 -15 17 14 -1 16 -1 30 -1 30 0 -1 -8 -7 -17 -14z" /><path d="M1401 1450 c-1 -92 23 -293 49 -414 23 -105 104 -350 149 -450 18 -38 30 -71 27 -73 -13 -13 -245 277 -339 423 -54 85 -127 205 -127 209 0 1 -16 29 -36 61 -43 70 -36 43 21 -86 87 -197 263 -444 475 -665 98 -102 173 -228 183 -308 4 -26 5 -47 3 -47 -2 0 -35 42 -73 93 -82 108 -187 224 -327 360 -99 96 -191 159 -301 208 -55 24 -178 59 -184 53 -20 -19 339 -291 479 -364 47 -24 5 8 -135 100 -183 122 -319 230 -289 230 30 -1 221 -106 284 -158 76 -61 220 -202 207 -202 -3 0 14 -19 38 -41 45 -41 232 -257 248 -286 5 -8 -24 4 -65 26 -40 22 -167 74 -283 116 -115 42 -232 86 -260 97 -174 71 -375 159 -470 205 -60 30 -101 46 -89 36 15 -14 23 -36 28 -83 8 -68 11 -73 111 -155 20 -16 47 -40 59 -52 13 -13 28 -23 33 -23 6 0 22 -14 36 -31 14 -17 30 -28 36 -24 6 3 11 -1 11 -10 0 -9 4 -14 9 -11 5 3 19 -2 32 -12 13 -10 31 -22 39 -25 8 -4 48 -25 88 -47 40 -22 83 -41 97 -42 13 -1 22 -5 19 -9 -4 -7 22 -22 41 -24 6 0 17 -5 25 -10 9 -6 146 -11 323 -13 300 -3 307 -3 307 17 0 51 98 117 190 128 41 5 48 8 35 16 -37 20 -168 -11 -218 -52 -10 -9 -21 -11 -26 -5 -17 19 -34 300 -40 661 -3 204 -9 374 -12 378 -16 15 -38 -448 -32 -665 3 -112 1 -150 -7 -138 -14 23 -134 321 -171 423 -77 219 -131 419 -174 640 l-23 120 -1 -75z" /><path d="M6690 1516 c0 -8 31 -36 41 -36 5 0 9 5 9 10 0 6 -7 10 -15 10 -8 0 -15 5 -15 10 0 6 -4 10 -10 10 -5 0 -10 -2 -10 -4z" /><path d="M6580 1500 c20 -13 50 -13 50 0 0 6 -15 10 -32 10 -25 0 -29 -3 -18 -10z" /><path d="M6651 1501 c-14 -9 -5 -18 17 -17 14 1 18 19 5 23 -4 2 -14 -1 -22 -6z" /><path d="M6530 1480 c0 -6 7 -10 15 -10 8 0 15 2 15 4 0 2 -7 6 -15 10 -8 3 -15 1 -15 -4z" /><path d="M6600 1470 c0 -5 5 -10 10 -10 6 0 10 5 10 10 0 6 -4 10 -10 10 -5 0 -10 -4 -10 -10z" /><path d="M6275 1430 c-3 -5 -1 -10 4 -10 6 0 11 5 11 10 0 6 -2 10 -4 10 -3 0 -8 -4 -11 -10z" /><path d="M6437 1374 c6 -15 23 -19 23 -5 0 5 -7 11 -14 14 -10 4 -13 1 -9 -9z" /><path d="M6965 1380 c3 -5 13 -10 21 -10 8 0 12 5 9 10 -3 6 -13 10 -21 10 -8 0 -12 -4 -9 -10z" /><path d="M6380 1356 c0 -10 28 -13 41 -5 10 6 7 9 -13 9 -16 0 -28 -2 -28 -4z" /><path d="M6963 1333 c9 -2 23 -2 30 0 6 3 -1 5 -18 5 -16 0 -22 -2 -12 -5z" /><path d="M6823 1279 c13 -22 31 -20 35 3 2 11 -5 16 -22 16 -22 0 -23 -3 -13 -19z" /><path d="M6260 1240 c0 -6 7 -10 15 -10 8 0 15 2 15 4 0 2 -7 6 -15 10 -8 3 -15 1 -15 -4z" /><path d="M6170 1210 c0 -5 5 -10 11 -10 5 0 7 5 4 10 -3 6 -8 10 -11 10 -2 0 -4 -4 -4 -10z" /><path d="M5385 489 c-11 -16 -1 -19 13 -3 7 8 8 14 3 14 -5 0 -13 -5 -16 -11z" /><path d="M4460 90 c0 -5 5 -10 10 -10 6 0 10 5 10 10 0 6 -4 10 -10 10 -5 0 -10 -4 -10 -10z" /><path d="M4417 70 c3 -11 7 -20 9 -20 2 0 4 9 4 20 0 11 -4 20 -9 20 -5 0 -7 -9 -4 -20z" /><path d="M4325 70 c-3 -5 -1 -10 4 -10 6 0 11 5 11 10 0 6 -2 10 -4 10 -3 0 -8 -4 -11 -10z" /></g></svg>